G04*
G04 #@! TF.GenerationSoftware,Altium Limited,Altium Designer,18.0.11 (651)*
G04*
G04 Layer_Physical_Order=2*
G04 Layer_Color=16711680*
%FSTAX44Y44*%
%MOMM*%
G71*
G01*
G75*
%ADD10C,0.2540*%
%ADD31C,0.5000*%
%ADD32C,1.6000*%
%ADD33C,3.0000*%
%ADD34C,1.4000*%
%ADD35C,2.2000*%
%ADD36R,2.2000X2.2000*%
%ADD37C,1.5000*%
%ADD38C,2.5000*%
%ADD39R,2.5000X2.5000*%
%ADD40R,1.5000X1.5000*%
%ADD41O,2.0320X1.0160*%
%ADD42O,3.0000X2.5000*%
G04:AMPARAMS|DCode=43|XSize=1.778mm|YSize=2.286mm|CornerRadius=0mm|HoleSize=0mm|Usage=FLASHONLY|Rotation=90.000|XOffset=0mm|YOffset=0mm|HoleType=Round|Shape=Octagon|*
%AMOCTAGOND43*
4,1,8,-1.1430,-0.4445,-1.1430,0.4445,-0.6985,0.8890,0.6985,0.8890,1.1430,0.4445,1.1430,-0.4445,0.6985,-0.8890,-0.6985,-0.8890,-1.1430,-0.4445,0.0*
%
%ADD43OCTAGOND43*%

%ADD44R,2.5000X2.5000*%
%ADD45O,1.6000X2.0000*%
%ADD46O,2.4000X4.0000*%
%ADD47O,2.5000X3.0000*%
G36*
X0090424Y0000889D02*
X0000889D01*
Y006096D01*
X00027318D01*
X00027571Y0060833D01*
X00017055Y00603974D01*
X00012021Y0059182D01*
X00048939D01*
X00043905Y00603974D01*
X00033389Y0060833D01*
X00033642Y006096D01*
X00879488D01*
X00879741Y0060833D01*
X00869225Y00603974D01*
X00863665Y0059055D01*
X00863757Y00590328D01*
X00862701Y00589622D01*
X00860843Y0059148D01*
X00855983Y00593493D01*
X00808403D01*
X00808403Y00593493D01*
X00803543Y0059148D01*
X00803543Y0059148D01*
X0079536Y00583297D01*
X00793347Y00578437D01*
Y00568117D01*
X00782843Y00557613D01*
X00781597Y00557861D01*
X00781423Y00558282D01*
X0076835Y00563697D01*
X00755277Y00558282D01*
X00749863Y0054521D01*
Y0052921D01*
X00755277Y00516138D01*
X0076835Y00510723D01*
X00781423Y00516138D01*
X00786837Y0052921D01*
Y00542167D01*
X00799793Y00555123D01*
X00800967Y00554637D01*
Y00442891D01*
X00799911Y00442186D01*
X0078834Y00446978D01*
X00774885Y00441405D01*
X00769312Y0042795D01*
Y0042295D01*
X00774885Y00409495D01*
X0078834Y00403922D01*
X00799911Y00408714D01*
X00800967Y00408009D01*
Y00392857D01*
X0074952Y0034141D01*
X00747507Y0033655D01*
Y00307847D01*
X0071297Y00273311D01*
X00712903Y00273291D01*
X00712549Y00273214D01*
X00712146Y00273154D01*
X00711227Y00273088D01*
X0070993Y00273625D01*
X00700684Y00269796D01*
X00696855Y0026055D01*
X00700684Y00251304D01*
X0070993Y00247475D01*
X00719176Y00251304D01*
X00723005Y0026055D01*
X00722465Y00261855D01*
X00722474Y00262181D01*
X00722524Y00262701D01*
X00722594Y00263169D01*
X00722671Y00263523D01*
X00722691Y0026359D01*
X0075924Y0030014D01*
X0075924Y0030014D01*
X00761253Y00305D01*
X00761253Y00305D01*
Y00333703D01*
X00809265Y00381715D01*
X0081051Y00381467D01*
X00812062Y00377722D01*
X00817944Y00375285D01*
Y00374015D01*
X00812062Y00371578D01*
X00808074Y0036195D01*
X00812062Y00352322D01*
X00817944Y00349885D01*
Y00348615D01*
X00812062Y00346178D01*
X00808074Y0033655D01*
X00812062Y00326922D01*
X00817944Y00324485D01*
Y00323215D01*
X00812062Y00320778D01*
X00808074Y0031115D01*
X00812062Y00301522D01*
X00817944Y00299085D01*
Y00297815D01*
X00812062Y00295378D01*
X00808074Y0028575D01*
X00812062Y00276122D01*
X00817944Y00273685D01*
Y00272415D01*
X00812062Y00269978D01*
X00808074Y0026035D01*
X00812062Y00250722D01*
X00817944Y00248285D01*
Y00247015D01*
X00812062Y00244578D01*
X00808074Y0023495D01*
X00812062Y00225322D01*
X00817944Y00222885D01*
Y00221615D01*
X00812062Y00219178D01*
X00808074Y0020955D01*
X00812062Y00199922D01*
X00817944Y00197485D01*
Y00196215D01*
X00812062Y00193778D01*
X00808074Y0018415D01*
X00812062Y00174522D01*
X00817944Y00172085D01*
Y00170815D01*
X00812062Y00168378D01*
X00808074Y0015875D01*
X00812062Y00149122D01*
X00817944Y00146685D01*
Y00145415D01*
X00812062Y00142978D01*
X00808074Y0013335D01*
X00812062Y00123722D01*
X00817944Y00121285D01*
Y00120015D01*
X00812062Y00117578D01*
X00808074Y0010795D01*
X00812062Y00098322D01*
X00821137Y00094563D01*
Y00093188D01*
X00814006Y00090234D01*
X00811942Y00085253D01*
X00812157Y00085297D01*
X00812803Y0008549D01*
X00813432Y00085737D01*
X00814046Y0008604D01*
X00814642Y00086397D01*
X00815223Y0008681D01*
X00815787Y00087277D01*
X00816334Y000878D01*
Y0008382D01*
X0082169D01*
Y0008255D01*
X0082296D01*
Y00077128D01*
X00827736Y00078112D01*
X00827421Y00077618D01*
X00827197Y00077117D01*
X00827063Y00076611D01*
X00827021Y00076099D01*
X0082707Y00075581D01*
X0082721Y00075058D01*
X0082744Y00074529D01*
X00827664Y00074157D01*
X00829374Y00074866D01*
X00832328Y00081997D01*
X00833703D01*
X00837462Y00072922D01*
X0084709Y00068934D01*
X00856718Y00072922D01*
X00860706Y0008255D01*
X00856718Y00092178D01*
X00850836Y00094615D01*
Y00095885D01*
X00856718Y00098322D01*
X00860706Y0010795D01*
X00856718Y00117578D01*
X00850836Y00120015D01*
Y00121285D01*
X00856718Y00123722D01*
X00860706Y0013335D01*
X00856718Y00142978D01*
X00850836Y00145415D01*
Y00146685D01*
X00856718Y00149122D01*
X00860706Y0015875D01*
X00856718Y00168378D01*
X00850836Y00170815D01*
Y00172085D01*
X00856718Y00174522D01*
X00860706Y0018415D01*
X00857863Y00191016D01*
X0087342Y00206573D01*
X0087342Y00206573D01*
X00875433Y00211433D01*
X00875433Y00211433D01*
Y0057318D01*
X00876703Y00574028D01*
X0088138Y00572091D01*
Y0059055D01*
X0088265D01*
Y0059182D01*
X00901109D01*
X00896075Y00603974D01*
X00885559Y0060833D01*
X00885812Y006096D01*
X0090424D01*
Y0000889D01*
D02*
G37*
G36*
X00782153Y00545406D02*
X00781784Y0054502D01*
X00781171Y00544266D01*
X00780926Y00543897D01*
X00780723Y00543535D01*
X00780561Y00543179D01*
X0078044Y00542829D01*
X00780361Y00542485D01*
X00780323Y00542146D01*
X00780326Y00541814D01*
X00779838Y00548503D01*
X00779882Y00548201D01*
X00779964Y00547974D01*
X00780085Y00547822D01*
X00780244Y00547745D01*
X00780442Y00547743D01*
X00780678Y00547815D01*
X00780953Y00547962D01*
X00781266Y00548185D01*
X00781617Y00548481D01*
X00782007Y00548853D01*
X00782153Y00545406D01*
D02*
G37*
G36*
X00857748Y00365732D02*
X00857543Y00365496D01*
X00857297Y00365155D01*
X0085668Y00364159D01*
X00855443Y00361882D01*
X00853832Y00358665D01*
X00850748Y00368498D01*
X00851523Y003681D01*
X00852264Y00367791D01*
X0085297Y00367571D01*
X00853643Y00367441D01*
X0085428Y003674D01*
X00854884Y00367448D01*
X00855454Y00367585D01*
X00855989Y00367812D01*
X0085649Y00368128D01*
X00856957Y00368533D01*
X00857748Y00365732D01*
D02*
G37*
G36*
X00718665Y00267489D02*
X00718326Y00267099D01*
X00718024Y00266643D01*
X00717759Y00266121D01*
X0071753Y00265533D01*
X00717338Y00264879D01*
X00717183Y00264159D01*
X00717065Y00263373D01*
X00716983Y00262521D01*
X0071693Y0026062D01*
X0071Y0026755D01*
X00710984Y00267558D01*
X00712753Y00267684D01*
X00713539Y00267803D01*
X00714259Y00267958D01*
X00714913Y0026815D01*
X00715501Y00268379D01*
X00716023Y00268644D01*
X00716479Y00268946D01*
X00716869Y00269286D01*
X00718665Y00267489D01*
D02*
G37*
G36*
X00848394Y00195117D02*
X00848498Y00194536D01*
X00848671Y00193957D01*
X00848913Y00193381D01*
X00849224Y00192807D01*
X00849604Y00192236D01*
X00850053Y00191667D01*
X00850571Y001911D01*
X00851159Y00190536D01*
X00851815Y00189974D01*
X00842365D01*
X00843021Y00190536D01*
X00843609Y001911D01*
X00844127Y00191667D01*
X00844576Y00192236D01*
X00844956Y00192807D01*
X00845267Y00193381D01*
X00845509Y00193957D01*
X00845682Y00194536D01*
X00845786Y00195117D01*
X0084582Y001957D01*
X0084836D01*
X00848394Y00195117D01*
D02*
G37*
%LPC*%
G36*
X00901109Y0058928D02*
X0088392D01*
Y00572091D01*
X00896075Y00577126D01*
X00901109Y0058928D01*
D02*
G37*
G36*
X00048939D02*
X0003175D01*
Y00572091D01*
X00043905Y00577126D01*
X00048939Y0058928D01*
D02*
G37*
G36*
X0002921D02*
X00012021D01*
X00017055Y00577126D01*
X0002921Y00572091D01*
Y0058928D01*
D02*
G37*
G36*
X0051562Y00560422D02*
Y0053848D01*
X00526326D01*
Y0054221D01*
X00526376Y00541735D01*
X00526527Y0054131D01*
X00526779Y00540935D01*
X00527131Y0054061D01*
X00527584Y00540335D01*
X00528137Y0054011D01*
X00528791Y00539935D01*
X00529546Y0053981D01*
X00530088Y00539762D01*
Y0054521D01*
X00525479Y00556338D01*
X0051562Y00560422D01*
D02*
G37*
G36*
X0038862D02*
Y0053848D01*
X00399326D01*
Y0054221D01*
X00399376Y00541735D01*
X00399527Y0054131D01*
X00399779Y00540935D01*
X00400131Y0054061D01*
X00400584Y00540335D01*
X00401137Y0054011D01*
X00401791Y00539935D01*
X00402546Y0053981D01*
X00403088Y00539762D01*
Y0054521D01*
X00398479Y00556338D01*
X0038862Y00560422D01*
D02*
G37*
G36*
X0064135D02*
Y0053848D01*
X00655818D01*
Y0054521D01*
X00651208Y00556338D01*
X0064135Y00560422D01*
D02*
G37*
G36*
X0063881D02*
X00628951Y00556338D01*
X00624342Y0054521D01*
Y0053848D01*
X0063881D01*
Y00560422D01*
D02*
G37*
G36*
X0051308D02*
X00503222Y00556338D01*
X00498612Y0054521D01*
Y0053848D01*
X0049924D01*
Y0053971D01*
X00499836Y00539716D01*
X00501246Y00539807D01*
X0050159Y00539861D01*
X00501873Y00539927D01*
X00502092Y00540005D01*
X00502249Y00540096D01*
X00502343Y00540199D01*
X00502374Y00540313D01*
Y0053848D01*
X0051308D01*
Y00560422D01*
D02*
G37*
G36*
X0038608D02*
X00376222Y00556338D01*
X00371612Y0054521D01*
Y0053848D01*
X0038608D01*
Y00560422D01*
D02*
G37*
G36*
X001651Y00556612D02*
Y0053467D01*
X00179568D01*
Y005414D01*
X00174958Y00552528D01*
X001651Y00556612D01*
D02*
G37*
G36*
X0016256D02*
X00152702Y00552528D01*
X00148092Y005414D01*
Y0053467D01*
X0016256D01*
Y00556612D01*
D02*
G37*
G36*
X0051308Y0053594D02*
X00502374D01*
Y00534107D01*
X00502343Y00534221D01*
X00502249Y00534324D01*
X00502092Y00534414D01*
X00501873Y00534493D01*
X0050159Y00534559D01*
X00501246Y00534613D01*
X00500839Y00534656D01*
X00499836Y00534704D01*
X0049924Y0053471D01*
Y0053594D01*
X00498612D01*
Y0052921D01*
X00503222Y00518082D01*
X0051308Y00513998D01*
Y0053594D01*
D02*
G37*
G36*
X0063881D02*
X00624342D01*
Y0052921D01*
X00625552Y00526289D01*
X00626695Y00527676D01*
X006272Y00528426D01*
X00627604Y00529145D01*
X00627906Y00529833D01*
X00628107Y0053049D01*
X00628208Y00531116D01*
X00628206Y00531711D01*
X00628104Y00532275D01*
X00631185Y00521241D01*
X00630996Y00521724D01*
X00630737Y00522066D01*
X00630407Y00522268D01*
X00630008Y00522328D01*
X00629539Y00522248D01*
X00629Y00522028D01*
X00628391Y00521666D01*
X00627712Y00521165D01*
X00627684Y00521141D01*
X00628951Y00518082D01*
X0063881Y00513998D01*
Y0053594D01*
D02*
G37*
G36*
X00399326D02*
X0038862D01*
Y00518354D01*
X00392338D01*
X00391866Y00518295D01*
X00391442Y00518119D01*
X00391069Y00517827D01*
X00390746Y00517417D01*
X00390472Y0051689D01*
X00390248Y00516246D01*
X00390074Y00515486D01*
X00389949Y00514608D01*
X00389945Y00514547D01*
X00398479Y00518082D01*
X00403088Y0052921D01*
Y00534658D01*
X00402546Y0053461D01*
X00401791Y00534485D01*
X00401137Y0053431D01*
X00400584Y00534085D01*
X00400131Y0053381D01*
X00399779Y00533485D01*
X00399527Y0053311D01*
X00399376Y00532685D01*
X00399326Y0053221D01*
Y0053594D01*
D02*
G37*
G36*
X0038608D02*
X00371612D01*
Y0052921D01*
X00376222Y00518082D01*
X00384755Y00514547D01*
X00384751Y00514608D01*
X00384626Y00515486D01*
X00384452Y00516246D01*
X00384228Y0051689D01*
X00383954Y00517417D01*
X00383631Y00517827D01*
X00383257Y00518119D01*
X00382835Y00518295D01*
X00382362Y00518354D01*
X0038608D01*
Y0053594D01*
D02*
G37*
G36*
X00655818D02*
X0064135D01*
Y00513998D01*
X00651208Y00518082D01*
X00655818Y0052921D01*
Y0053594D01*
D02*
G37*
G36*
X00526326D02*
X0051562D01*
Y00513998D01*
X00525479Y00518082D01*
X00530088Y0052921D01*
Y00534658D01*
X00529546Y0053461D01*
X00528791Y00534485D01*
X00528137Y0053431D01*
X00527584Y00534085D01*
X00527131Y0053381D01*
X00526779Y00533485D01*
X00526527Y0053311D01*
X00526376Y00532685D01*
X00526326Y0053221D01*
Y0053594D01*
D02*
G37*
G36*
X0071755Y00563697D02*
X00704477Y00558282D01*
X00699063Y0054521D01*
Y0052921D01*
X00704477Y00516138D01*
X0071755Y00510723D01*
X00730622Y00516138D01*
X00736037Y0052921D01*
Y0054521D01*
X00730622Y00558282D01*
X0071755Y00563697D01*
D02*
G37*
G36*
X0058928D02*
X00576208Y00558282D01*
X00570793Y0054521D01*
Y0052921D01*
X00576208Y00516138D01*
X0058928Y00510723D01*
X00602352Y00516138D01*
X00607767Y0052921D01*
Y0054521D01*
X00602352Y00558282D01*
X0058928Y00563697D01*
D02*
G37*
G36*
X0025654Y00590175D02*
X00244233Y00585077D01*
X00239135Y0057277D01*
X00242382Y00564931D01*
Y00555774D01*
X00119976Y00433368D01*
X0011892Y00434073D01*
X00119805Y0043621D01*
X00114707Y00448517D01*
X001024Y00453615D01*
X00090093Y00448517D01*
X00084995Y0043621D01*
X00090093Y00423903D01*
X001024Y00418805D01*
X00104711Y00419762D01*
X00105453Y00418695D01*
X00101412Y0040894D01*
X00101412Y0040894D01*
Y0037719D01*
X00101412Y0037719D01*
X00105559Y00367179D01*
X00136039Y00336699D01*
X00136039Y00336699D01*
X00139784Y00335148D01*
X00140093Y00334403D01*
X001524Y00329305D01*
X00164707Y00334403D01*
X00169805Y0034671D01*
X00164707Y00359017D01*
X001524Y00364115D01*
X00149761Y00363022D01*
X00129728Y00383054D01*
Y00403076D01*
X00137737Y00411085D01*
X00138793Y0041038D01*
X00134995Y0040121D01*
X00140093Y00388903D01*
X001524Y00383805D01*
X00164707Y00388903D01*
X00165555Y00390951D01*
X001658Y00391168D01*
X00166534Y00391751D01*
X00167208Y00392221D01*
X00167814Y00392585D01*
X00168346Y0039285D01*
X00168739Y00393005D01*
X002196D01*
X00225401Y00395409D01*
X00245968Y00415975D01*
X00267112D01*
X00293918Y00389169D01*
X00293918Y00389169D01*
X0029972Y00386765D01*
X0029972Y00386766D01*
X0041529D01*
X00421091Y00389169D01*
X00451048Y00419125D01*
X00451137Y00419187D01*
X00451801Y00418912D01*
X00452219Y00419085D01*
X00452659Y00418979D01*
X00453183Y004193D01*
X0047478D01*
Y00428675D01*
X0048534D01*
Y0042057D01*
X00508897D01*
X00509818Y00419649D01*
X0051562Y00417245D01*
X0051562Y00417245D01*
X00532304D01*
X00535515Y00409495D01*
X0054897Y00403922D01*
X00562425Y00409495D01*
X00567999Y0042295D01*
Y0042795D01*
X00562425Y00441405D01*
X0054897Y00446978D01*
X00535515Y00441405D01*
X00532304Y00433655D01*
X005205D01*
Y0045573D01*
X0048534D01*
Y00445084D01*
X0047478D01*
Y0045446D01*
X0043962D01*
Y00432863D01*
X00439299Y00432339D01*
X00439405Y00431899D01*
X00439232Y00431482D01*
X00439507Y00430817D01*
X00439445Y00430728D01*
X00411892Y00403175D01*
X00303118D01*
X00276311Y00429981D01*
X0027051Y00432384D01*
X0024257D01*
X0024257Y00432385D01*
X00236768Y00429981D01*
X00216202Y00409414D01*
X00168739D01*
X00168346Y0040957D01*
X00167814Y00409835D01*
X00167208Y00410199D01*
X00166597Y00410625D01*
X00165535Y00411518D01*
X00164707Y00413517D01*
X001524Y00418615D01*
X0014323Y00414817D01*
X00142525Y00415873D01*
X00241378Y00514726D01*
X00242876Y00514428D01*
X00246529Y00505609D01*
X00324603Y00427535D01*
X00325708Y00425871D01*
X00326749Y0042403D01*
X00327575Y00422255D01*
X00328198Y00420546D01*
X0032863Y00418899D01*
X00328882Y00417306D01*
X0032898Y00415459D01*
X0032936Y00414663D01*
Y0041064D01*
X00333534D01*
X0033447Y00410252D01*
X00334615Y00410312D01*
X00334762Y0041026D01*
X00335558Y0041064D01*
X0036152D01*
Y00436602D01*
X003619Y00437398D01*
X00361848Y00437545D01*
X00361908Y0043769D01*
X0036152Y00438626D01*
Y004428D01*
X00357497D01*
X00356701Y0044318D01*
X00354854Y00443278D01*
X00353261Y0044353D01*
X00351614Y00443962D01*
X00349905Y00444585D01*
X0034813Y00445411D01*
X00346289Y00446452D01*
X00344625Y00447557D01*
X00270698Y00521484D01*
Y00536931D01*
X00271871Y00537417D01*
X00282089Y00527199D01*
X002921Y00523052D01*
X002921Y00523052D01*
X00317422D01*
X00319286Y00522634D01*
X00320736Y00522138D01*
X0032106Y00521973D01*
X00323478Y00516138D01*
X0033655Y00510723D01*
X00349622Y00516138D01*
X00355037Y0052921D01*
Y0054521D01*
X00349622Y00558282D01*
X0033655Y00563697D01*
X00323478Y00558282D01*
X0032106Y00552447D01*
X00320736Y00552282D01*
X00319286Y00551786D01*
X00317422Y00551368D01*
X00297964D01*
X00272094Y00577238D01*
X00268847Y00585077D01*
X0025654Y00590175D01*
D02*
G37*
G36*
X00179568Y0053213D02*
X001651D01*
Y00510188D01*
X00174958Y00514272D01*
X00179568Y005254D01*
Y0053213D01*
D02*
G37*
G36*
X0016256D02*
X00148092D01*
Y005254D01*
X00152702Y00514272D01*
X0016256Y00510188D01*
Y0053213D01*
D02*
G37*
G36*
X0011303Y00559887D02*
X00099958Y00554472D01*
X00094543Y005414D01*
Y005254D01*
X00099958Y00512328D01*
X0011303Y00506913D01*
X00126103Y00512328D01*
X00131517Y005254D01*
Y005414D01*
X00126103Y00554472D01*
X0011303Y00559887D01*
D02*
G37*
G36*
X0039751Y00440849D02*
Y0042799D01*
X00410369D01*
X00406603Y00437083D01*
X0039751Y00440849D01*
D02*
G37*
G36*
X0039497D02*
X00385877Y00437083D01*
X0038211Y0042799D01*
X0039497D01*
Y00440849D01*
D02*
G37*
G36*
X00410369Y0042545D02*
X0039751D01*
Y0041259D01*
X00406603Y00416357D01*
X00410369Y0042545D01*
D02*
G37*
G36*
X0039497D02*
X0038211D01*
X00385877Y00416357D01*
X0039497Y0041259D01*
Y0042545D01*
D02*
G37*
G36*
X0046355Y00563697D02*
X00450477Y00558282D01*
X00445063Y0054521D01*
Y0052921D01*
X00450477Y00516138D01*
X0046355Y00510723D01*
X00474075Y00515082D01*
X00514898Y00474259D01*
X00514898Y00474258D01*
X005207Y00471855D01*
X005207Y00471856D01*
X00565962D01*
X00581384Y00456433D01*
X00579941Y0045295D01*
Y0044795D01*
X00585515Y00434495D01*
X0059897Y00428922D01*
X00612425Y00434495D01*
X00615635Y00442245D01*
X00634696D01*
X00635337Y00440975D01*
X00629941Y0042795D01*
Y00425644D01*
X00585882Y00381585D01*
X0054737D01*
X00541568Y00379182D01*
X00541568Y00379181D01*
X00512934Y00350546D01*
X00512626Y00350446D01*
X00512165Y00350356D01*
X00511572Y00350307D01*
X00510837Y00350318D01*
X00509958Y00350409D01*
X00508941Y00350592D01*
X00507639Y00350917D01*
X00507118Y0035084D01*
X0050292Y00352579D01*
X00489465Y00347005D01*
X00483891Y0033355D01*
X00489465Y00320095D01*
X0050292Y00314522D01*
X00505238Y00315482D01*
X0050596Y0031546D01*
X00507086Y00315343D01*
X00508124Y00315176D01*
X00509008Y00314973D01*
X00509736Y00314747D01*
X005101Y00314599D01*
X00510464Y0031395D01*
X0050975Y0031268D01*
X0048661D01*
Y00284097D01*
X00486317Y00283648D01*
X00486427Y00283125D01*
X00486222Y00282631D01*
X0048661Y00281694D01*
Y0027752D01*
X00489642D01*
X00489776Y00277125D01*
X00490032Y00276005D01*
Y00245894D01*
X00461496Y00217358D01*
X00385434D01*
X00384827Y00217428D01*
X00383262Y00217714D01*
X00381889Y00218044D01*
X00380776Y00218392D01*
X00379934Y00218734D01*
X00379062Y00219199D01*
X00377826Y00219318D01*
X003708Y00222229D01*
X003658D01*
X00358774Y00219318D01*
X00357538Y00219199D01*
X00356666Y00218734D01*
X00355824Y00218392D01*
X00354787Y00218068D01*
X00351647Y00217408D01*
X00351276Y00217358D01*
X00263834D01*
X00263227Y00217428D01*
X00261662Y00217714D01*
X00260289Y00218044D01*
X00259176Y00218392D01*
X00258334Y00218734D01*
X00257462Y00219199D01*
X00256226Y00219318D01*
X002492Y00222229D01*
X002442D01*
X00237174Y00219318D01*
X00235938Y00219199D01*
X00235066Y00218734D01*
X00234224Y00218392D01*
X00233187Y00218068D01*
X00230047Y00217408D01*
X00229676Y00217358D01*
X00205254D01*
X00146861Y00275751D01*
X00147566Y00276807D01*
X001524Y00274805D01*
X00164707Y00279903D01*
X00169805Y0029221D01*
X00164707Y00304517D01*
X001524Y00309615D01*
X00140093Y00304517D01*
X00134995Y0029221D01*
X00136997Y00287376D01*
X00135941Y00286671D01*
X00076388Y00346224D01*
Y00512348D01*
X00076607Y00513704D01*
X00076888Y00515011D01*
X00077178Y0051602D01*
X0007744Y00516706D01*
X00077808Y00517415D01*
X00077913Y00518629D01*
X00080717Y005254D01*
Y005414D01*
X00075303Y00554472D01*
X0006223Y00559887D01*
X00049158Y00554472D01*
X00043743Y005414D01*
Y005254D01*
X00046547Y00518629D01*
X00046652Y00517415D01*
X0004702Y00516706D01*
X00047283Y0051602D01*
X00047572Y00515011D01*
X00047853Y00513704D01*
X00048072Y00512348D01*
Y0034036D01*
X00048072Y0034036D01*
X00052219Y00330349D01*
X00109578Y0027299D01*
X00108873Y00271934D01*
X001024Y00274615D01*
X00090093Y00269517D01*
X00084995Y0025721D01*
X00090093Y00244903D01*
X001024Y00239805D01*
X00114707Y00244903D01*
X00119805Y0025721D01*
X00117124Y00263683D01*
X0011818Y00264388D01*
X00189379Y00193189D01*
X00189379Y00193189D01*
X0019939Y00189042D01*
X00229566D01*
X00230173Y00188972D01*
X00231738Y00188686D01*
X00233111Y00188356D01*
X00234224Y00188008D01*
X00234691Y00187818D01*
X00235128Y00187004D01*
X00235207Y00186153D01*
X00235123Y00186005D01*
X0019812D01*
X0019812Y00186005D01*
X00192318Y00183601D01*
X00192318Y00183601D01*
X00178854Y00170137D01*
X00178761Y00170072D01*
X00178118Y00170338D01*
X00177696Y00170163D01*
X00177251Y00170269D01*
X00176782Y0016998D01*
X0015514D01*
Y00160604D01*
X00135941D01*
X00135445Y001611D01*
X00135367Y00161288D01*
X00135179Y00161366D01*
X00134961Y00161584D01*
X00134888Y00161714D01*
X00134808Y00161737D01*
X00130175Y0016637D01*
X00111125D01*
X0010414Y00159385D01*
Y00145415D01*
X00109855Y001397D01*
X0010414Y00133985D01*
Y00120015D01*
X00109855Y001143D01*
X0010414Y00108585D01*
Y00094615D01*
X00111125Y0008763D01*
X00120538D01*
X00120573Y00087599D01*
X00121245Y0008763D01*
X00122578D01*
X00122785Y00087571D01*
X00122873Y00087522D01*
X00122935Y00087515D01*
X00123214Y00087357D01*
X00123455Y00087192D01*
X00177078Y00033568D01*
X0018288Y00031165D01*
X00345809D01*
X00350831Y00029086D01*
X00362909D01*
X00368711Y00031488D01*
X00422512Y00085289D01*
X00422761Y00085462D01*
X00423708Y00085146D01*
X00424098Y0008534D01*
X00424527Y00085266D01*
X00424887Y0008552D01*
X004428D01*
Y0011768D01*
X0041064D01*
Y00098397D01*
X00410275Y00097701D01*
X00410413Y00097256D01*
X00410266Y00096815D01*
X00410454Y00096438D01*
X00369565Y00055548D01*
X00368319Y00055796D01*
X00366116Y00061116D01*
X0035687Y00064945D01*
X00347624Y00061116D01*
X00347193Y00060075D01*
X00239335D01*
X00239087Y0006132D01*
X00239881Y00061649D01*
X00244028Y0007166D01*
Y0007566D01*
X00239881Y00085671D01*
X0022987Y00089818D01*
X00226852Y00088568D01*
X00226147Y00089624D01*
X00269838Y00133315D01*
X00269931Y00133364D01*
X00270503Y00133597D01*
X00271232Y00133823D01*
X00272116Y00134026D01*
X00273085Y00134182D01*
X00275004Y00134331D01*
X0027732Y00133371D01*
X00290775Y00138945D01*
X00296348Y001524D01*
X00290775Y00165855D01*
X00284752Y0016835D01*
X00285Y00169596D01*
X00291242D01*
X00312768Y00148069D01*
X00312768Y00148069D01*
X0031857Y00145666D01*
X00347193D01*
X00347624Y00144624D01*
X0035687Y00140795D01*
X00366116Y00144624D01*
X00369945Y0015387D01*
X00366116Y00163116D01*
X0035687Y00166945D01*
X00347624Y00163116D01*
X00347193Y00162075D01*
X00321968D01*
X00300441Y00183601D01*
X0029464Y00186005D01*
X00258277D01*
X00258193Y00186153D01*
X00258272Y00187004D01*
X00258709Y00187818D01*
X00259176Y00188008D01*
X00260213Y00188332D01*
X00263353Y00188992D01*
X00263724Y00189042D01*
X00351166D01*
X00351773Y00188972D01*
X00353338Y00188686D01*
X00354711Y00188356D01*
X00355824Y00188008D01*
X00356666Y00187666D01*
X00357538Y00187201D01*
X00358774Y00187082D01*
X003658Y00184172D01*
X003708D01*
X00377826Y00187082D01*
X00379062Y00187201D01*
X00379934Y00187666D01*
X00380776Y00188008D01*
X00381813Y00188332D01*
X00384953Y00188992D01*
X00385324Y00189042D01*
X0046736D01*
X0046736Y00189042D01*
X00477371Y00193189D01*
X00514201Y00230019D01*
X00514201Y00230019D01*
X00518348Y0024003D01*
X00518348Y0024003D01*
Y00276005D01*
X00518604Y00277125D01*
X00518738Y0027752D01*
X0052177D01*
Y00281694D01*
X00522158Y00282631D01*
X00521953Y00283125D01*
X00522063Y00283648D01*
X0052177Y00284097D01*
Y00301438D01*
X00522943Y00301924D01*
X00525196Y00299672D01*
Y0020066D01*
X00527598Y00194858D01*
X00559348Y00163109D01*
X0056515Y00160706D01*
X00567298D01*
X00567771Y0016051D01*
X00567794Y00160477D01*
X00567889Y00160461D01*
X0057404Y00157913D01*
X005842D01*
X00591976Y00161134D01*
X00595197Y0016891D01*
X0059272Y0017489D01*
X00593426Y00175945D01*
X00605802D01*
X00622356Y00159391D01*
X00621925Y0015835D01*
X00625754Y00149104D01*
X00635Y00145275D01*
X00636041Y00145706D01*
X00647849Y00133898D01*
X0065365Y00131496D01*
X0069108D01*
X00696881Y00133898D01*
X00708889Y00145906D01*
X0070993Y00145475D01*
X00719176Y00149304D01*
X00723005Y0015855D01*
X00719176Y00167796D01*
X0070993Y00171625D01*
X00700684Y00167796D01*
X00696855Y0015855D01*
X00697286Y00157509D01*
X00687682Y00147905D01*
X00682221D01*
X00681973Y0014915D01*
X00682346Y00149304D01*
X00686175Y0015855D01*
X00682346Y00167796D01*
X00681304Y00168227D01*
Y00221665D01*
X0071735D01*
X00723151Y00224069D01*
X00746989Y00247906D01*
X0074803Y00247475D01*
X00757276Y00251304D01*
X00761105Y0026055D01*
X00757276Y00269796D01*
X0074803Y00273625D01*
X00738784Y00269796D01*
X00734955Y0026055D01*
X00735386Y00259509D01*
X00713952Y00238074D01*
X00624428D01*
X00607781Y00254722D01*
X0060198Y00257125D01*
X00592759D01*
X00592457Y00257198D01*
X00592146Y00257296D01*
X0059199Y00257357D01*
X00591416Y00258527D01*
X00591574Y00258985D01*
X00592618Y00261506D01*
X00592435Y00261488D01*
X0059169Y00261354D01*
X00590983Y00261182D01*
X00590313Y00260972D01*
X00589682Y00260724D01*
X00589089Y00260437D01*
X00588534Y00260112D01*
X00588017Y00259749D01*
Y0026289D01*
X0058039D01*
X00567588D01*
X00569284Y00258796D01*
X00568889Y00257257D01*
X00567534Y00256696D01*
X00564313Y0024892D01*
X00567469Y002413D01*
X00564313Y0023368D01*
X00567534Y00225904D01*
X0057531Y00222683D01*
X0058547D01*
X00593246Y00225904D01*
X00596467Y0023368D01*
X0059399Y0023966D01*
X00594696Y00240716D01*
X00598582D01*
X00615229Y00224069D01*
X0062103Y00221665D01*
X00664895D01*
Y00168227D01*
X00663854Y00167796D01*
X00660025Y0015855D01*
X00663854Y00149304D01*
X00664227Y0014915D01*
X00663979Y00147905D01*
X00657048D01*
X00647644Y00157309D01*
X00648075Y0015835D01*
X00644246Y00167596D01*
X00635Y00171425D01*
X00633959Y00170994D01*
X00615001Y00189951D01*
X006092Y00192355D01*
X00591489D01*
X00591187Y00192428D01*
X00590876Y00192526D01*
X0059072Y00192587D01*
X00590146Y00193757D01*
X00590304Y00194215D01*
X00591922Y0019812D01*
X0057912D01*
X00566318D01*
X00568014Y00194026D01*
X00567619Y00192487D01*
X00566264Y00191926D01*
X00563121Y00184338D01*
X0056187Y00183793D01*
X00541604Y00204058D01*
Y0030307D01*
X00541288Y00303833D01*
X00542186Y00304731D01*
X0054897Y00301922D01*
X00562425Y00307495D01*
X00567999Y0032095D01*
Y0032595D01*
X00562425Y00339405D01*
X0054897Y00344978D01*
X00535515Y00339405D01*
X00529941Y0032595D01*
Y0032095D01*
X00530689Y00319146D01*
X00529633Y0031844D01*
X00522005Y00326068D01*
X00521956Y00326161D01*
X00521723Y00326733D01*
X00521497Y00327462D01*
X00521294Y00328346D01*
X00521138Y00329314D01*
X0052099Y00331222D01*
X00521005Y00331271D01*
X00521949Y0033355D01*
X00521792Y00333927D01*
X00522163Y0033497D01*
X0052305Y00337082D01*
X00523392Y00337755D01*
X00523458Y00337865D01*
X00550768Y00365176D01*
X0058928D01*
X00595081Y00367579D01*
X00636563Y00409061D01*
X0064897Y00403922D01*
X00662425Y00409495D01*
X00667999Y0042295D01*
Y0042795D01*
X00662603Y00440975D01*
X00663244Y00442245D01*
X00674066D01*
X00674707Y00440975D01*
X00669312Y0042795D01*
Y0042295D01*
X00674885Y00409495D01*
X0068834Y00403922D01*
X00701795Y00409495D01*
X00707368Y0042295D01*
Y0042795D01*
X00701973Y00440975D01*
X00702614Y00442245D01*
X00721674D01*
X00724885Y00434495D01*
X0073834Y00428922D01*
X00751795Y00434495D01*
X00757368Y0044795D01*
Y0045295D01*
X00751795Y00466405D01*
X0073834Y00471978D01*
X00724885Y00466405D01*
X00721674Y00458655D01*
X00615635D01*
X00612425Y00466405D01*
X0059897Y00471978D01*
X00592068Y0046912D01*
X00591899Y00469161D01*
X00591876Y00469147D01*
X00575162Y00485862D01*
X0056936Y00488265D01*
X00524098D01*
X00482037Y00530326D01*
Y0054521D01*
X00476623Y00558282D01*
X0046355Y00563697D01*
D02*
G37*
G36*
X002492Y00346479D02*
X0024797D01*
Y0033147D01*
X00264953D01*
X00260711Y00341711D01*
X002492Y00346479D01*
D02*
G37*
G36*
X0024543D02*
X002442D01*
X00232689Y00341711D01*
X00228447Y0033147D01*
X0024543D01*
Y00346479D01*
D02*
G37*
G36*
X00264953Y0032893D02*
X0024797D01*
Y00313921D01*
X002492D01*
X00260711Y00318689D01*
X00264953Y0032893D01*
D02*
G37*
G36*
X0024543D02*
X00228447D01*
X00232689Y00318689D01*
X002442Y00313921D01*
X0024543D01*
Y0032893D01*
D02*
G37*
G36*
X004572Y00351309D02*
X00443745Y00345735D01*
X00438172Y0033228D01*
X00443745Y00318825D01*
X004572Y00313251D01*
X00470655Y00318825D01*
X00476228Y0033228D01*
X00470655Y00345735D01*
X004572Y00351309D01*
D02*
G37*
G36*
X003708Y00349229D02*
X003658D01*
X00352345Y00343655D01*
X00346772Y003302D01*
X00352345Y00316745D01*
X003658Y00311171D01*
X003708D01*
X00384255Y00316745D01*
X00389828Y003302D01*
X00384255Y00343655D01*
X003708Y00349229D01*
D02*
G37*
G36*
X0078834Y00344978D02*
X00774885Y00339405D01*
X00769312Y0032595D01*
Y0032095D01*
X00774885Y00307495D01*
X0078834Y00301922D01*
X00801795Y00307495D01*
X00807368Y0032095D01*
Y0032595D01*
X00801795Y00339405D01*
X0078834Y00344978D01*
D02*
G37*
G36*
X0068834D02*
X00674885Y00339405D01*
X00669312Y0032595D01*
Y0032095D01*
X00674885Y00307495D01*
X0068834Y00301922D01*
X00701795Y00307495D01*
X00707368Y0032095D01*
Y0032595D01*
X00701795Y00339405D01*
X0068834Y00344978D01*
D02*
G37*
G36*
X0064897D02*
X00635515Y00339405D01*
X00629941Y0032595D01*
Y0032095D01*
X00635515Y00307495D01*
X0064897Y00301922D01*
X00662425Y00307495D01*
X00667999Y0032095D01*
Y0032595D01*
X00662425Y00339405D01*
X0064897Y00344978D01*
D02*
G37*
G36*
X0045847Y00283391D02*
Y0027432D01*
X00467541D01*
X00464884Y00280734D01*
X0045847Y00283391D01*
D02*
G37*
G36*
X0058547Y00272408D02*
X0058166D01*
Y0026543D01*
X00588017D01*
Y00268571D01*
X00588534Y00268208D01*
X00589089Y00267883D01*
X00589682Y00267596D01*
X00590313Y00267348D01*
X00590983Y00267138D01*
X0059169Y00266966D01*
X00592435Y00266832D01*
X0059262Y00266809D01*
X00591302Y00269992D01*
X0058547Y00272408D01*
D02*
G37*
G36*
X0057912D02*
X0057531D01*
X00569478Y00269992D01*
X00567588Y0026543D01*
X0057912D01*
Y00272408D01*
D02*
G37*
G36*
X0063627Y0027015D02*
Y0026162D01*
X00639999D01*
Y0026525D01*
X0064048Y00264794D01*
X00640981Y00264386D01*
X00641504Y00264026D01*
X00642047Y00263714D01*
X0064261Y0026345D01*
X00643194Y00263234D01*
X00643799Y00263066D01*
X00644236Y00262982D01*
X00642302Y00267652D01*
X0063627Y0027015D01*
D02*
G37*
G36*
X00467541Y0027178D02*
X0045847D01*
Y00262709D01*
X00464884Y00265366D01*
X00467541Y0027178D01*
D02*
G37*
G36*
X004318Y00286667D02*
X00422172Y00282678D01*
X00418184Y0027305D01*
X00422172Y00263422D01*
X004318Y00259433D01*
X00441428Y00263422D01*
X0044513Y00272357D01*
X00445187Y00272497D01*
X00446562D01*
X0044662Y00272357D01*
X00449516Y00265366D01*
X0045593Y00262709D01*
Y0027305D01*
Y00283391D01*
X00449516Y00280734D01*
X0044662Y00273743D01*
X00446562Y00273603D01*
X00445187D01*
X0044513Y00273743D01*
X00441428Y00282678D01*
X004318Y00286667D01*
D02*
G37*
G36*
X0067437Y0027035D02*
Y0026182D01*
X006829D01*
X00680402Y00267852D01*
X0067437Y0027035D01*
D02*
G37*
G36*
X0067183Y0027035D02*
X00665798Y00267852D01*
X00663782Y00262983D01*
X00664228Y00263071D01*
X00664829Y00263243D01*
X00665408Y00263464D01*
X00665964Y00263734D01*
X00666498Y00264053D01*
X00667009Y00264421D01*
X00667497Y00264839D01*
X00667963Y00265305D01*
X00668063Y0026182D01*
X0067183D01*
Y0027035D01*
D02*
G37*
G36*
X0063373Y0027015D02*
X00627698Y00267652D01*
X00627338Y00266782D01*
X00633037Y00267069D01*
X00629746Y0026162D01*
X0063373D01*
Y0027015D01*
D02*
G37*
G36*
Y0025908D02*
X00628212D01*
X00628139Y0025896D01*
X00628106Y0025908D01*
X006252D01*
X00627698Y00253048D01*
X0063373Y0025055D01*
Y0025908D01*
D02*
G37*
G36*
X0067183Y0025928D02*
X00668135D01*
X00668243Y00255509D01*
X00667748Y00255954D01*
X00667234Y00256352D01*
X00666701Y00256703D01*
X00666149Y00257007D01*
X00665578Y00257265D01*
X00664988Y00257475D01*
X0066438Y00257639D01*
X00663946Y0025772D01*
X00665798Y00253248D01*
X0067183Y0025075D01*
Y0025928D01*
D02*
G37*
G36*
X006829D02*
X0067437D01*
Y0025075D01*
X00680402Y00253248D01*
X006829Y0025928D01*
D02*
G37*
G36*
X00639999Y0025908D02*
X0063627D01*
Y0025055D01*
X00642302Y00253048D01*
X00644236Y00257718D01*
X00643799Y00257634D01*
X00643194Y00257466D01*
X0064261Y0025725D01*
X00642047Y00256986D01*
X00641504Y00256674D01*
X00640981Y00256314D01*
X0064048Y00255906D01*
X00639999Y0025545D01*
Y0025908D01*
D02*
G37*
G36*
X0025654Y00411105D02*
X00244233Y00406007D01*
X00240986Y00398168D01*
X00189379Y00346561D01*
X00185232Y0033655D01*
X00185232Y0033655D01*
Y0028861D01*
X00185232Y0028861D01*
X00189379Y00278599D01*
X00196973Y00271005D01*
X00197249Y00270648D01*
X0019827Y00269104D01*
X00199188Y00267533D01*
X00199971Y00265993D01*
X00200623Y00264484D01*
X00201149Y00263004D01*
X00201607Y00261359D01*
X00202257Y00260529D01*
X00202525Y0025951D01*
X00202822Y00259336D01*
X00205345Y00253245D01*
X002188Y00247672D01*
X002238D01*
X00237255Y00253245D01*
X00242828Y002667D01*
X00237255Y00280155D01*
X00230166Y00283092D01*
X0022915Y0028389D01*
X00227507Y00284351D01*
X00226024Y00284885D01*
X00224497Y00285555D01*
X00222994Y00286333D01*
X00219598Y00288479D01*
X00219385Y00288637D01*
X00213548Y00294474D01*
Y00330686D01*
X00261008Y00378146D01*
X00268847Y00381393D01*
X00273945Y003937D01*
X00268847Y00406007D01*
X0025654Y00411105D01*
D02*
G37*
G36*
X0045974Y00245291D02*
Y0023622D01*
X00468811D01*
X00466154Y00242634D01*
X0045974Y00245291D01*
D02*
G37*
G36*
X00468811Y0023368D02*
X0045974D01*
Y00224609D01*
X00466154Y00227266D01*
X00468811Y0023368D01*
D02*
G37*
G36*
X0043307Y00248566D02*
X00423442Y00244578D01*
X00419454Y0023495D01*
X00423442Y00225322D01*
X0043307Y00221334D01*
X00442698Y00225322D01*
X00446399Y00234257D01*
X00446457Y00234397D01*
X00447832D01*
X0044789Y00234257D01*
X00450786Y00227266D01*
X004572Y00224609D01*
Y0023495D01*
Y00245291D01*
X00450786Y00242634D01*
X0044789Y00235643D01*
X00447832Y00235503D01*
X00446457D01*
X00446399Y00235643D01*
X00442698Y00244578D01*
X0043307Y00248566D01*
D02*
G37*
G36*
X005842Y00207638D02*
X00581726D01*
X00581845Y00206917D01*
X0058202Y00206264D01*
X00582245Y0020571D01*
X0058252Y00205257D01*
X00582845Y00204905D01*
X0058322Y00204654D01*
X00583645Y00204503D01*
X0058412Y00204453D01*
X0058039D01*
Y0020066D01*
X00591922D01*
X00590032Y00205222D01*
X005842Y00207638D01*
D02*
G37*
G36*
X00576514D02*
X0057404D01*
X00568208Y00205222D01*
X00566318Y0020066D01*
X0057785D01*
Y00204453D01*
X0057412D01*
X00574595Y00204503D01*
X0057502Y00204654D01*
X00575395Y00204905D01*
X0057572Y00205257D01*
X00575995Y0020571D01*
X0057622Y00206264D01*
X00576395Y00206917D01*
X00576514Y00207638D01*
D02*
G37*
G36*
X0050546Y00206253D02*
Y0019177D01*
X00519943D01*
X00515701Y00202011D01*
X0050546Y00206253D01*
D02*
G37*
G36*
X0050292D02*
X00492679Y00202011D01*
X00488437Y0019177D01*
X0050292D01*
Y00206253D01*
D02*
G37*
G36*
X00519943Y0018923D02*
X0050546D01*
Y00174747D01*
X00515701Y00178989D01*
X00519943Y0018923D01*
D02*
G37*
G36*
X0050292D02*
X00488437D01*
X00492679Y00178989D01*
X0050292Y00174747D01*
Y0018923D01*
D02*
G37*
G36*
X0074803Y00171625D02*
X00738784Y00167796D01*
X00734955Y0015855D01*
X00738784Y00149304D01*
X0074803Y00145475D01*
X00757276Y00149304D01*
X00761105Y0015855D01*
X00757276Y00167796D01*
X0074803Y00171625D01*
D02*
G37*
G36*
X0047879Y0011573D02*
Y0010287D01*
X0049165D01*
X00487883Y00111963D01*
X0047879Y0011573D01*
D02*
G37*
G36*
X0047625D02*
X00467157Y00111963D01*
X00463391Y0010287D01*
X0047625D01*
Y0011573D01*
D02*
G37*
G36*
X007112Y00121002D02*
Y0009906D01*
X00725668D01*
Y0010579D01*
X00721059Y00116918D01*
X007112Y00121002D01*
D02*
G37*
G36*
X0070866D02*
X00698801Y00116918D01*
X00694192Y0010579D01*
Y0009906D01*
X0070866D01*
Y00121002D01*
D02*
G37*
G36*
X0058039Y00119732D02*
Y0009779D01*
X00594858D01*
Y0010452D01*
X00590248Y00115648D01*
X0058039Y00119732D01*
D02*
G37*
G36*
X0057785D02*
X00567991Y00115648D01*
X00563382Y0010452D01*
Y0009779D01*
X0057785D01*
Y00119732D01*
D02*
G37*
G36*
X0049165Y0010033D02*
X0047879D01*
Y00087471D01*
X00487883Y00091237D01*
X0049165Y0010033D01*
D02*
G37*
G36*
X0047625D02*
X00463391D01*
X00467157Y00091237D01*
X0047625Y00087471D01*
Y0010033D01*
D02*
G37*
G36*
X00594858Y0009525D02*
X0058039D01*
Y00073308D01*
X00590248Y00077392D01*
X00591516Y00080451D01*
X00591488Y00080475D01*
X00590809Y00080976D01*
X005902Y00081338D01*
X00589661Y00081559D01*
X00589192Y00081638D01*
X00588793Y00081578D01*
X00588464Y00081376D01*
X00588204Y00081034D01*
X00588015Y00080551D01*
X00591096Y00091585D01*
X00590994Y00091021D01*
X00590993Y00090426D01*
X00591092Y00089801D01*
X00591294Y00089143D01*
X00591596Y00088455D01*
X00592Y00087736D01*
X00592505Y00086986D01*
X00593111Y00086204D01*
X00593645Y00085591D01*
X00594858Y0008852D01*
Y0009525D01*
D02*
G37*
G36*
X0082042Y0008128D02*
X00816334D01*
Y000773D01*
X00815787Y00077822D01*
X00815223Y0007829D01*
X00814642Y00078703D01*
X00814046Y0007906D01*
X00813432Y00079363D01*
X00812803Y0007961D01*
X00812157Y00079802D01*
X00811942Y00079847D01*
X00814006Y00074866D01*
X0082042Y00072209D01*
Y00073767D01*
X00817892Y00076083D01*
X0082042Y00076604D01*
Y0008128D01*
D02*
G37*
G36*
X00725668Y0009652D02*
X007112D01*
Y00078934D01*
X00714918D01*
X00714445Y00078875D01*
X00714023Y00078699D01*
X00713649Y00078407D01*
X00713326Y00077997D01*
X00713052Y0007747D01*
X00712828Y00076827D01*
X00712654Y00076066D01*
X0071253Y00075188D01*
X00712525Y00075127D01*
X00721059Y00078662D01*
X00725668Y0008979D01*
Y0009652D01*
D02*
G37*
G36*
X0070866D02*
X00694192D01*
Y0008979D01*
X00698801Y00078662D01*
X00707335Y00075127D01*
X0070733Y00075188D01*
X00707206Y00076066D01*
X00707032Y00076827D01*
X00706808Y0007747D01*
X00706534Y00077997D01*
X00706211Y00078407D01*
X00705837Y00078699D01*
X00705415Y00078875D01*
X00704942Y00078934D01*
X0070866D01*
Y0009652D01*
D02*
G37*
G36*
X0057785Y0009525D02*
X00563382D01*
Y0008852D01*
X00567991Y00077392D01*
X0057785Y00073308D01*
Y0009525D01*
D02*
G37*
G36*
X0076073Y00124277D02*
X00747657Y00118862D01*
X00742243Y0010579D01*
Y0008979D01*
X00747657Y00076718D01*
X0076073Y00071303D01*
X00773802Y00076718D01*
X00779217Y0008979D01*
Y0010579D01*
X00773802Y00118862D01*
X0076073Y00124277D01*
D02*
G37*
G36*
X0062992Y00123007D02*
X00616847Y00117592D01*
X00611433Y0010452D01*
Y0008852D01*
X00616847Y00075448D01*
X0062992Y00070033D01*
X00642992Y00075448D01*
X00648407Y0008852D01*
Y0010452D01*
X00642992Y00117592D01*
X0062992Y00123007D01*
D02*
G37*
G36*
X0088392Y00048939D02*
Y0003175D01*
X00901109D01*
X00896075Y00043905D01*
X0088392Y00048939D01*
D02*
G37*
G36*
X0088138D02*
X00869225Y00043905D01*
X00864191Y0003175D01*
X0088138D01*
Y00048939D01*
D02*
G37*
G36*
X0003175D02*
Y0003175D01*
X00048939D01*
X00043905Y00043905D01*
X0003175Y00048939D01*
D02*
G37*
G36*
X0002921D02*
X00017055Y00043905D01*
X00012021Y0003175D01*
X0002921D01*
Y00048939D01*
D02*
G37*
G36*
X00901109Y0002921D02*
X0088392D01*
Y00012021D01*
X00896075Y00017055D01*
X00901109Y0002921D01*
D02*
G37*
G36*
X0088138D02*
X00864191D01*
X00869225Y00017055D01*
X0088138Y00012021D01*
Y0002921D01*
D02*
G37*
G36*
X00048939D02*
X0003175D01*
Y00012021D01*
X00043905Y00017055D01*
X00048939Y0002921D01*
D02*
G37*
G36*
X0002921D02*
X00012021D01*
X00017055Y00017055D01*
X0002921Y00012021D01*
Y0002921D01*
D02*
G37*
%LPD*%
G36*
X00327665Y0052123D02*
X00327474Y00522746D01*
X003269Y00524103D01*
X00325944Y005253D01*
X00324605Y00526337D01*
X00322884Y00527215D01*
X00320781Y00527933D01*
X00318295Y00528492D01*
X00315427Y00528891D01*
X00312176Y0052913D01*
X00308543Y0052921D01*
Y0054521D01*
X00312176Y0054529D01*
X00318295Y00545928D01*
X00320781Y00546487D01*
X00322884Y00547205D01*
X00324605Y00548083D01*
X00325944Y0054912D01*
X003269Y00550317D01*
X00327474Y00551674D01*
X00327665Y0055319D01*
Y0052123D01*
D02*
G37*
G36*
X00490481Y0043188D02*
X00490431Y00432355D01*
X0049028Y0043278D01*
X00490028Y00433155D01*
X00489676Y0043348D01*
X00489223Y00433755D01*
X0048867Y0043398D01*
X00488016Y00434155D01*
X00487262Y0043428D01*
X00486406Y00434355D01*
X00485451Y0043438D01*
Y0043938D01*
X00486406Y00439405D01*
X00487262Y0043948D01*
X00488016Y00439605D01*
X0048867Y0043978D01*
X00489223Y00440005D01*
X00489676Y0044028D01*
X00490028Y00440605D01*
X0049028Y0044098D01*
X00490431Y00441405D01*
X00490481Y0044188D01*
Y0043188D01*
D02*
G37*
G36*
X00469689Y00441405D02*
X0046984Y0044098D01*
X00470092Y00440605D01*
X00470444Y0044028D01*
X00470897Y00440005D01*
X0047145Y0043978D01*
X00472104Y00439605D01*
X00472859Y0043948D01*
X00473714Y00439405D01*
X00474669Y0043938D01*
Y0043438D01*
X00473714Y00434355D01*
X00472859Y0043428D01*
X00472104Y00434155D01*
X0047145Y0043398D01*
X00470897Y00433755D01*
X00470444Y0043348D01*
X00470092Y00433155D01*
X0046984Y0043278D01*
X00469689Y00432355D01*
X00469639Y0043188D01*
Y0044188D01*
X00469689Y00441405D01*
D02*
G37*
G36*
X00451801Y00424411D02*
X00451413Y00424693D01*
X00450953Y00424835D01*
X00450423D01*
X00449822Y00424693D01*
X0044915Y00424411D01*
X00448407Y00423986D01*
X00447594Y0042342D01*
X0044671Y00422713D01*
X0044473Y00420875D01*
X00441195Y00424411D01*
X00442185Y00425436D01*
X00443741Y00427274D01*
X00444306Y00428087D01*
X0044473Y0042883D01*
X00445013Y00429502D01*
X00445155Y00430103D01*
Y00430633D01*
X00445013Y00431093D01*
X0044473Y00431482D01*
X00451801Y00424411D01*
D02*
G37*
G36*
X00536776Y00420457D02*
X00536723Y00420931D01*
X00536563Y00421355D01*
X00536298Y00421729D01*
X00535926Y00422053D01*
X00535448Y00422327D01*
X00534863Y00422551D01*
X00534172Y00422726D01*
X00533375Y0042285D01*
X00532472Y00422925D01*
X00531462Y0042295D01*
Y0042795D01*
X00532472Y00427975D01*
X00533375Y0042805D01*
X00534172Y00428174D01*
X00534863Y00428349D01*
X00535448Y00428573D01*
X00535926Y00428847D01*
X00536298Y00429171D01*
X00536563Y00429545D01*
X00536723Y00429969D01*
X00536776Y00430443D01*
Y00420457D01*
D02*
G37*
G36*
X00336726Y00446854D02*
X00341197Y00443233D01*
X00343411Y00441763D01*
X00345612Y00440518D01*
X00347799Y004395D01*
X00349972Y00438708D01*
X00352132Y00438142D01*
X00354278Y00437803D01*
X00356409Y0043769D01*
X0033447Y00415751D01*
X00334357Y00417882D01*
X00334018Y00420028D01*
X00333452Y00422188D01*
X0033266Y00424361D01*
X00331642Y00426548D01*
X00330397Y00428749D01*
X00328927Y00430963D01*
X0032723Y00433192D01*
X00325306Y00435434D01*
X00323157Y0043769D01*
X0033447Y00449003D01*
X00336726Y00446854D01*
D02*
G37*
G36*
X00161268Y00407922D02*
X00163247Y00406258D01*
X00164215Y00405582D01*
X00165168Y0040501D01*
X00166106Y00404542D01*
X0016703Y00404178D01*
X00167939Y00403918D01*
X00168833Y00403762D01*
X00169712Y0040371D01*
Y0039871D01*
X00168833Y00398658D01*
X00167939Y00398502D01*
X0016703Y00398242D01*
X00166106Y00397878D01*
X00165168Y0039741D01*
X00164215Y00396838D01*
X00163247Y00396162D01*
X00162265Y00395382D01*
X00161268Y00394498D01*
X00160256Y0039351D01*
Y0040891D01*
X00161268Y00407922D01*
D02*
G37*
G36*
X00475424Y00531711D02*
X00475423Y00531116D01*
X00475522Y0053049D01*
X00475724Y00529833D01*
X00476026Y00529145D01*
X0047643Y00528426D01*
X00476935Y00527676D01*
X00477541Y00526894D01*
X00478249Y00526082D01*
X00479058Y00525238D01*
X00477486Y00519738D01*
X00476667Y00520522D01*
X00475918Y00521165D01*
X00475239Y00521666D01*
X0047463Y00522028D01*
X00474091Y00522248D01*
X00473622Y00522328D01*
X00473223Y00522268D01*
X00472893Y00522066D01*
X00472634Y00521724D01*
X00472445Y00521241D01*
X00475526Y00532275D01*
X00475424Y00531711D01*
D02*
G37*
G36*
X00072415Y00518962D02*
X00071957Y00517762D01*
X00071552Y00516349D01*
X00071201Y00514723D01*
X00070904Y00512883D01*
X00070473Y00508566D01*
X00070257Y00503396D01*
X0007023Y00500492D01*
X0005423D01*
X00054203Y00503396D01*
X00053555Y00512883D01*
X00053259Y00514723D01*
X00052908Y00516349D01*
X00052503Y00517762D01*
X00052045Y00518962D01*
X00051532Y00519949D01*
X00072928D01*
X00072415Y00518962D01*
D02*
G37*
G36*
X00587946Y00465045D02*
X0058869Y00464406D01*
X00589382Y0046389D01*
X00590022Y00463498D01*
X00590608Y00463228D01*
X00591143Y00463082D01*
X00591624Y00463059D01*
X00592053Y00463159D01*
X00592429Y00463382D01*
X00592752Y00463729D01*
X00586805Y00455566D01*
X00587045Y00455994D01*
X00587172Y00456464D01*
X00587186Y00456977D01*
X00587087Y00457533D01*
X00586875Y00458131D01*
X0058655Y00458772D01*
X00586113Y00459455D01*
X00585563Y00460182D01*
X00584899Y0046095D01*
X00584123Y00461762D01*
X00587149Y00465807D01*
X00587946Y00465045D01*
D02*
G37*
G36*
X00726146Y00445457D02*
X00726093Y00445931D01*
X00725933Y00446355D01*
X00725668Y00446729D01*
X00725296Y00447053D01*
X00724818Y00447327D01*
X00724233Y00447551D01*
X00723542Y00447726D01*
X00722745Y0044785D01*
X00721842Y00447925D01*
X00720832Y0044795D01*
Y0045295D01*
X00721842Y00452975D01*
X00722745Y0045305D01*
X00723542Y00453174D01*
X00724233Y00453349D01*
X00724818Y00453573D01*
X00725296Y00453847D01*
X00725668Y00454171D01*
X00725933Y00454545D01*
X00726093Y00454969D01*
X00726146Y00455443D01*
Y00445457D01*
D02*
G37*
G36*
X00611217Y00454969D02*
X00611377Y00454545D01*
X00611642Y00454171D01*
X00612014Y00453847D01*
X00612492Y00453573D01*
X00613077Y00453349D01*
X00613768Y00453174D01*
X00614565Y0045305D01*
X00615468Y00452975D01*
X00616478Y0045295D01*
Y0044795D01*
X00615468Y00447925D01*
X00614565Y0044785D01*
X00613768Y00447726D01*
X00613077Y00447551D01*
X00612492Y00447327D01*
X00612014Y00447053D01*
X00611642Y00446729D01*
X00611377Y00446355D01*
X00611217Y00445931D01*
X00611164Y00445457D01*
Y00455443D01*
X00611217Y00454969D01*
D02*
G37*
G36*
X0063877Y00415789D02*
X00638619Y00416311D01*
X00638394Y0041669D01*
X00638097Y00416924D01*
X00637726Y00417014D01*
X00637282Y0041696D01*
X00636764Y00416762D01*
X00636174Y00416419D01*
X0063551Y00415933D01*
X00634773Y00415302D01*
X00633962Y00414527D01*
X00632926Y00420562D01*
X00633706Y00421376D01*
X00634982Y00422933D01*
X0063548Y00423676D01*
X00635883Y00424395D01*
X00636193Y0042509D01*
X00636409Y00425762D01*
X00636531Y00426409D01*
X00636558Y00427033D01*
X00636492Y00427633D01*
X0063877Y00415789D01*
D02*
G37*
G36*
X00520143Y00342617D02*
X00519618Y00342021D01*
X00519095Y00341286D01*
X00518575Y00340412D01*
X00518059Y00339399D01*
X00517033Y00336956D01*
X00516525Y00335527D01*
X00515435Y00331822D01*
X00515436Y00331729D01*
X00515673Y00328663D01*
X00515895Y00327293D01*
X00516184Y00326032D01*
X00516541Y00324879D01*
X00516966Y00323835D01*
X0051746Y00322899D01*
X00518022Y00322072D01*
X00518651Y00321354D01*
X00515116Y00317819D01*
X00514398Y00318449D01*
X00513571Y0031901D01*
X00512635Y00319504D01*
X00511591Y00319929D01*
X00510438Y00320286D01*
X00509177Y00320575D01*
X00507807Y00320797D01*
X00506328Y00320949D01*
X00503045Y00321051D01*
X00514063Y00332068D01*
X00506307Y00345582D01*
X00507787Y00345213D01*
X00509188Y0034496D01*
X00510511Y00344824D01*
X00511756Y00344804D01*
X00512924Y00344901D01*
X00514012Y00345115D01*
X00515023Y00345445D01*
X00515956Y00345891D01*
X00516811Y00346454D01*
X00517588Y00347133D01*
X00520143Y00342617D01*
D02*
G37*
G36*
X0051581Y0028247D02*
X00515051Y00281991D01*
X0051438Y0028119D01*
X00513799Y0028007D01*
X00513307Y00278631D01*
X00512905Y0027687D01*
X00512592Y0027479D01*
X00512369Y0027239D01*
X0051219Y0026663D01*
X0049619D01*
X00496145Y00269671D01*
X00495788Y0027479D01*
X00495475Y0027687D01*
X00495073Y00278631D01*
X00494581Y0028007D01*
X00494Y0028119D01*
X0049333Y00281991D01*
X0049257Y0028247D01*
X00491721Y00282631D01*
X0051666D01*
X0051581Y0028247D01*
D02*
G37*
G36*
X0074796Y0025355D02*
X00747298Y00253533D01*
X00746654Y00253467D01*
X00746031Y00253352D01*
X00745426Y00253189D01*
X00744841Y00252977D01*
X00744275Y00252716D01*
X00743728Y00252407D01*
X00743201Y0025205D01*
X00742693Y00251644D01*
X00742205Y00251189D01*
X00738669Y00254725D01*
X00739124Y00255213D01*
X0073953Y00255721D01*
X00739887Y00256248D01*
X00740196Y00256795D01*
X00740457Y00257361D01*
X00740669Y00257946D01*
X00740832Y00258551D01*
X00740947Y00259174D01*
X00741013Y00259818D01*
X0074103Y0026048D01*
X0074796Y0025355D01*
D02*
G37*
G36*
X00588534Y00252968D02*
X00589089Y00252643D01*
X00589682Y00252356D01*
X00590313Y00252108D01*
X00590983Y00251898D01*
X0059169Y00251726D01*
X00592435Y00251592D01*
X00593219Y00251496D01*
X005949Y0025142D01*
Y0024642D01*
X0059404Y00246401D01*
X00592435Y00246248D01*
X0059169Y00246114D01*
X00590983Y00245942D01*
X00590313Y00245732D01*
X00589682Y00245484D01*
X00589089Y00245197D01*
X00588534Y00244872D01*
X00588017Y00244509D01*
Y00253331D01*
X00588534Y00252968D01*
D02*
G37*
G36*
X006806Y0022737D02*
X0067965Y0022732D01*
X006788Y0022717D01*
X0067805Y0022692D01*
X006774Y0022657D01*
X0067685Y0022612D01*
X006764Y0022557D01*
X0067605Y0022492D01*
X006758Y0022417D01*
X0067565Y0022332D01*
X006756Y0022237D01*
X006706D01*
X0067055Y0022332D01*
X006704Y0022417D01*
X0067015Y0022492D01*
X006698Y0022557D01*
X0066935Y0022612D01*
X006688Y0022657D01*
X0066815Y0022692D01*
X006674Y0022717D01*
X0066655Y0022732D01*
X006656Y0022737D01*
X006731Y0023237D01*
X006806Y0022737D01*
D02*
G37*
G36*
X00377601Y00213747D02*
X00378916Y00213213D01*
X00380424Y00212741D01*
X00382124Y00212332D01*
X00384016Y00211986D01*
X00388379Y00211483D01*
X00393511Y00211231D01*
X00396366Y002112D01*
Y001952D01*
X00393511Y00195168D01*
X00386101Y00194697D01*
X00384016Y00194414D01*
X00380424Y00193659D01*
X00378916Y00193187D01*
X00377601Y00192653D01*
X00376479Y00192055D01*
Y00214345D01*
X00377601Y00213747D01*
D02*
G37*
G36*
X00360121Y00192055D02*
X00358999Y00192653D01*
X00357684Y00193187D01*
X00356176Y00193659D01*
X00354476Y00194068D01*
X00352584Y00194414D01*
X00348221Y00194917D01*
X00343089Y00195168D01*
X00340234Y001952D01*
Y002112D01*
X00343089Y00211231D01*
X00350499Y00211703D01*
X00352584Y00211986D01*
X00356176Y00212741D01*
X00357684Y00213213D01*
X00358999Y00213747D01*
X00360121Y00214345D01*
Y00192055D01*
D02*
G37*
G36*
X00256001Y00213747D02*
X00257316Y00213213D01*
X00258824Y00212741D01*
X00260524Y00212332D01*
X00262416Y00211986D01*
X00266779Y00211483D01*
X00271911Y00211231D01*
X00274766Y002112D01*
Y001952D01*
X00271911Y00195168D01*
X00264501Y00194697D01*
X00262416Y00194414D01*
X00258824Y00193659D01*
X00257316Y00193187D01*
X00256001Y00192653D01*
X00254879Y00192055D01*
Y00214345D01*
X00256001Y00213747D01*
D02*
G37*
G36*
X00238521Y00192055D02*
X00237399Y00192653D01*
X00236084Y00193187D01*
X00234576Y00193659D01*
X00232876Y00194068D01*
X00230984Y00194414D01*
X00226621Y00194917D01*
X00221489Y00195168D01*
X00218634Y001952D01*
Y002112D01*
X00221489Y00211231D01*
X00228899Y00211703D01*
X00230984Y00211986D01*
X00234576Y00212741D01*
X00236084Y00213213D01*
X00237399Y00213747D01*
X00238521Y00214345D01*
Y00192055D01*
D02*
G37*
G36*
X00587264Y00188198D02*
X00587819Y00187873D01*
X00588412Y00187586D01*
X00589043Y00187338D01*
X00589712Y00187128D01*
X0059042Y00186956D01*
X00591165Y00186822D01*
X00591949Y00186726D01*
X0059363Y0018665D01*
Y0018165D01*
X0059277Y00181631D01*
X00591165Y00181478D01*
X0059042Y00181344D01*
X00589712Y00181172D01*
X00589043Y00180962D01*
X00588412Y00180714D01*
X00587819Y00180427D01*
X00587264Y00180102D01*
X00586747Y00179739D01*
Y00188561D01*
X00587264Y00188198D01*
D02*
G37*
G36*
X00570712Y00165137D02*
X00570656Y00165379D01*
X0057049Y00165595D01*
X00570211Y00165786D01*
X00569822Y00165952D01*
X00569322Y00166092D01*
X0056871Y00166206D01*
X00567987Y00166296D01*
X00566207Y00166397D01*
X0056515Y0016641D01*
Y0017141D01*
X00566207Y00171423D01*
X0056871Y00171614D01*
X00569322Y00171728D01*
X00569822Y00171868D01*
X00570211Y00172034D01*
X0057049Y00172225D01*
X00570656Y00172441D01*
X00570712Y00172683D01*
Y00165137D01*
D02*
G37*
G36*
X00188725Y00164869D02*
X00187732Y00163841D01*
X0018617Y00161999D01*
X00185602Y00161185D01*
X00185174Y00160443D01*
X00184888Y00159771D01*
X00184744Y00159171D01*
X00184741Y00158642D01*
X00184879Y00158185D01*
X00185159Y00157799D01*
X00178118Y00164839D01*
X00178505Y00164559D01*
X00178962Y00164421D01*
X00179491Y00164424D01*
X00180091Y00164568D01*
X00180763Y00164854D01*
X00181505Y00165282D01*
X00182319Y0016585D01*
X00183205Y0016656D01*
X00185189Y00168405D01*
X00188725Y00164869D01*
D02*
G37*
G36*
X00675624Y00168621D02*
X00675696Y00167975D01*
X00675816Y00167349D01*
X00675984Y00166744D01*
X006762Y0016616D01*
X00676464Y00165597D01*
X00676776Y00165054D01*
X00677136Y00164531D01*
X00677544Y0016403D01*
X00678Y00163549D01*
X006682D01*
X00668656Y0016403D01*
X00669064Y00164531D01*
X00669424Y00165054D01*
X00669736Y00165597D01*
X0067Y0016616D01*
X00670216Y00166744D01*
X00670384Y00167349D01*
X00670504Y00167975D01*
X00670576Y00168621D01*
X006706Y00169288D01*
X006756D01*
X00675624Y00168621D01*
D02*
G37*
G36*
X00629663Y00167256D02*
X00630171Y0016685D01*
X00630698Y00166493D01*
X00631245Y00166184D01*
X00631811Y00165923D01*
X00632396Y00165711D01*
X00633001Y00165548D01*
X00633624Y00165433D01*
X00634268Y00165367D01*
X0063493Y0016535D01*
X00628Y0015842D01*
X00627983Y00159082D01*
X00627917Y00159726D01*
X00627802Y00160349D01*
X00627639Y00160954D01*
X00627427Y00161539D01*
X00627166Y00162105D01*
X00626857Y00162652D01*
X006265Y00163179D01*
X00626094Y00163687D01*
X00625639Y00164175D01*
X00629175Y00167711D01*
X00629663Y00167256D01*
D02*
G37*
G36*
X0070986Y0015155D02*
X00709197Y00151533D01*
X00708554Y00151467D01*
X00707931Y00151352D01*
X00707326Y00151189D01*
X00706741Y00150977D01*
X00706175Y00150716D01*
X00705628Y00150407D01*
X00705101Y0015005D01*
X00704593Y00149644D01*
X00704105Y00149189D01*
X00700569Y00152725D01*
X00701024Y00153213D01*
X0070143Y00153721D01*
X00701787Y00154248D01*
X00702096Y00154795D01*
X00702357Y00155361D01*
X00702569Y00155946D01*
X00702732Y00156551D01*
X00702847Y00157174D01*
X00702913Y00157817D01*
X0070293Y0015848D01*
X0070986Y0015155D01*
D02*
G37*
G36*
X00642017Y00157618D02*
X00642083Y00156974D01*
X00642198Y00156351D01*
X00642361Y00155746D01*
X00642573Y00155161D01*
X00642834Y00154595D01*
X00643143Y00154048D01*
X006435Y00153521D01*
X00643906Y00153013D01*
X00644361Y00152525D01*
X00640825Y00148989D01*
X00640337Y00149444D01*
X00639829Y0014985D01*
X00639302Y00150207D01*
X00638755Y00150516D01*
X00638189Y00150777D01*
X00637604Y00150989D01*
X00636999Y00151152D01*
X00636376Y00151267D01*
X00635732Y00151333D01*
X0063507Y0015135D01*
X00642Y0015828D01*
X00642017Y00157618D01*
D02*
G37*
G36*
X00351871Y0014897D02*
X0035139Y00149426D01*
X00350889Y00149834D01*
X00350366Y00150194D01*
X00349823Y00150506D01*
X0034926Y0015077D01*
X00348676Y00150986D01*
X00348071Y00151154D01*
X00347445Y00151274D01*
X00346799Y00151346D01*
X00346132Y0015137D01*
Y0015637D01*
X00346799Y00156394D01*
X00347445Y00156466D01*
X00348071Y00156586D01*
X00348676Y00156754D01*
X0034926Y0015697D01*
X00349823Y00157234D01*
X00350366Y00157546D01*
X00350889Y00157906D01*
X0035139Y00158314D01*
X00351871Y0015877D01*
Y0014897D01*
D02*
G37*
G36*
X00160281Y001474D02*
X00160231Y00147875D01*
X0016008Y001483D01*
X00159828Y00148675D01*
X00159476Y00149D01*
X00159023Y00149275D01*
X0015847Y001495D01*
X00157816Y00149675D01*
X00157062Y001498D01*
X00156206Y00149875D01*
X00155251Y001499D01*
Y001549D01*
X00156206Y00154925D01*
X00157062Y00155D01*
X00157816Y00155125D01*
X0015847Y001553D01*
X00159023Y00155525D01*
X00159476Y001558D01*
X00159828Y00156125D01*
X0016008Y001565D01*
X00160231Y00156925D01*
X00160281Y001574D01*
Y001474D01*
D02*
G37*
G36*
X00131535Y00156925D02*
X00131702Y001565D01*
X00131981Y00156125D01*
X00132371Y001558D01*
X00132872Y00155525D01*
X00133485Y001553D01*
X00134209Y00155125D01*
X00135044Y00155D01*
X00135991Y00154925D01*
X0013705Y001549D01*
Y001499D01*
X00135991Y00149875D01*
X00135044Y001498D01*
X00134209Y00149675D01*
X00133485Y001495D01*
X00132872Y00149275D01*
X00132371Y00149D01*
X00131981Y00148675D01*
X00131702Y001483D01*
X00131535Y00147875D01*
X00131479Y001474D01*
Y001574D01*
X00131535Y00156925D01*
D02*
G37*
G36*
X00277195Y00139901D02*
X00275499Y00139884D01*
X00272433Y00139647D01*
X00271063Y00139425D01*
X00269802Y00139136D01*
X00268649Y00138779D01*
X00267605Y00138354D01*
X00266669Y0013786D01*
X00265842Y00137298D01*
X00265124Y00136669D01*
X00261589Y00140204D01*
X00262218Y00140922D01*
X0026278Y00141749D01*
X00263274Y00142685D01*
X00263699Y00143729D01*
X00264056Y00144882D01*
X00264345Y00146143D01*
X00264566Y00147513D01*
X00264719Y00148992D01*
X00264821Y00152275D01*
X00277195Y00139901D01*
D02*
G37*
G36*
X00131535Y00131525D02*
X00131702Y001311D01*
X00131981Y00130725D01*
X00132371Y001304D01*
X00132872Y00130125D01*
X00133485Y001299D01*
X00134209Y00129725D01*
X00135044Y001296D01*
X00135991Y00129525D01*
X0013705Y001295D01*
Y001245D01*
X00135991Y00124475D01*
X00135044Y001244D01*
X00134209Y00124275D01*
X00133485Y001241D01*
X00132872Y00123875D01*
X00132371Y001236D01*
X00131981Y00123275D01*
X00131702Y001229D01*
X00131535Y00122475D01*
X00131479Y00122D01*
Y00132D01*
X00131535Y00131525D01*
D02*
G37*
G36*
X00423321Y00090631D02*
X00422909Y00090891D01*
X00422432Y00091015D01*
X00421889Y00091002D01*
X00421281Y00090853D01*
X00420607Y00090568D01*
X00419867Y00090146D01*
X00419061Y00089588D01*
X0041819Y00088893D01*
X00417253Y00088062D01*
X0041625Y00087095D01*
X00412215Y00090131D01*
X00413227Y00091179D01*
X00414813Y00093047D01*
X00415386Y00093868D01*
X00415813Y00094613D01*
X00416093Y00095282D01*
X00416227Y00095876D01*
X00416215Y00096394D01*
X00416056Y00096836D01*
X00415751Y00097202D01*
X00423321Y00090631D01*
D02*
G37*
G36*
X00131608Y00097016D02*
X0013133Y00096699D01*
X00131184Y00096319D01*
X0013117Y00095877D01*
X00131289Y00095373D01*
X0013154Y00094806D01*
X00131923Y00094178D01*
X00132439Y00093486D01*
X00133087Y00092733D01*
X00133868Y00091918D01*
X00129509Y00089205D01*
X00128595Y00090084D01*
X00126905Y00091494D01*
X00126129Y00092025D01*
X00125399Y0009244D01*
X00124714Y00092738D01*
X00124076Y00092921D01*
X00123484Y00092987D01*
X00122938Y00092937D01*
X00122438Y00092771D01*
X00132019Y00097271D01*
X00131608Y00097016D01*
D02*
G37*
G36*
X00213473Y00085018D02*
X0021262Y00084129D01*
X00211347Y00082575D01*
X00210927Y00081908D01*
X00210652Y00081315D01*
X0021052Y00080797D01*
X00210534Y00080352D01*
X00210692Y00079981D01*
X00210994Y00079684D01*
X0021144Y00079461D01*
X00201799Y00082917D01*
X00196492Y00074597D01*
X00196706Y0007505D01*
X001968Y00075552D01*
X00196774Y00076103D01*
X0019663Y00076703D01*
X00196366Y00077352D01*
X00195983Y00078051D01*
X0019548Y00078799D01*
X00194858Y00079596D01*
X00194117Y00080443D01*
X00193256Y00081338D01*
X00196115Y0008555D01*
X00196983Y00084718D01*
X00198531Y00083451D01*
X00199212Y00083016D01*
X00199829Y00082715D01*
X00200384Y00082547D01*
X00200877Y00082511D01*
X00201307Y00082608D01*
X00201675Y00082838D01*
X00201755Y00082933D01*
X00201405Y00083059D01*
X00202262Y00083337D01*
X00203878Y00083982D01*
X00204639Y00084348D01*
X00206065Y00085167D01*
X00206731Y00085619D01*
X00207364Y00086101D01*
X00207966Y00086612D01*
X00208536Y00087151D01*
X00213473Y00085018D01*
D02*
G37*
G36*
X00212234Y0007227D02*
X0021214Y00071768D01*
X00212166Y00071217D01*
X0021231Y00070617D01*
X00212574Y00069968D01*
X00212957Y00069269D01*
X0021346Y00068521D01*
X00214082Y00067724D01*
X00214823Y00066877D01*
X00215684Y00065982D01*
X00212825Y0006177D01*
X00211957Y00062603D01*
X00210409Y00063869D01*
X00209729Y00064304D01*
X00209111Y00064605D01*
X00208556Y00064774D01*
X00208063Y00064809D01*
X00207633Y00064712D01*
X00207265Y00064482D01*
X0020696Y00064119D01*
X00212448Y00072723D01*
X00212234Y0007227D01*
D02*
G37*
G36*
X00178373Y00088154D02*
X00178075Y00086656D01*
X00171003Y00083727D01*
X00167662Y0007566D01*
Y0007493D01*
X0017907D01*
Y0007366D01*
X0018034D01*
Y00060778D01*
X00187137Y00063593D01*
X0018976Y00069927D01*
X0019103D01*
X00194459Y00061649D01*
X0020447Y00057502D01*
X00207312Y0005868D01*
X00207434Y00058641D01*
X00207731Y00058795D01*
X00217779Y00048748D01*
X00217293Y00047575D01*
X00186278D01*
X00172081Y00061772D01*
X00172801Y00062849D01*
X001778Y00060778D01*
Y0007239D01*
X00167662D01*
Y0007166D01*
X00170259Y00065391D01*
X00169182Y00064671D01*
X00137283Y0009657D01*
X0013716Y00097317D01*
Y00108585D01*
X00131445Y001143D01*
X00134808Y00117663D01*
X00134888Y00117686D01*
X00134961Y00117816D01*
X00135179Y00118034D01*
X00135367Y00118112D01*
X00135445Y001183D01*
X00135941Y00118795D01*
X00147732D01*
X00178373Y00088154D01*
D02*
G37*
G36*
X00351871Y0004697D02*
X0035139Y00047426D01*
X00350889Y00047834D01*
X00350366Y00048194D01*
X00349823Y00048506D01*
X0034926Y0004877D01*
X00348676Y00048986D01*
X00348071Y00049154D01*
X00347445Y00049274D01*
X00346799Y00049346D01*
X00346132Y0004937D01*
Y0005437D01*
X00346799Y00054394D01*
X00347445Y00054466D01*
X00348071Y00054586D01*
X00348676Y00054754D01*
X0034926Y0005497D01*
X00349823Y00055234D01*
X00350366Y00055546D01*
X00350889Y00055906D01*
X0035139Y00056314D01*
X00351871Y0005677D01*
Y0004697D01*
D02*
G37*
G36*
X00210732Y00288651D02*
X00214578Y00285361D01*
X00216483Y00283943D01*
X00220257Y00281558D01*
X00222127Y00280591D01*
X00223985Y00279775D01*
X00225831Y0027911D01*
X00227665Y00278596D01*
X00206904Y00262835D01*
X00206394Y00264664D01*
X00205743Y00266497D01*
X0020495Y00268332D01*
X00204016Y00270169D01*
X0020294Y00272009D01*
X00201723Y00273852D01*
X00198864Y00277544D01*
X00197222Y00279395D01*
X00195439Y00281248D01*
X00208792Y00290522D01*
X00210732Y00288651D01*
D02*
G37*
D10*
X0076835Y0053721D02*
X0077216D01*
X0080022Y0056527D01*
Y00578437D01*
X00808403Y0058662D01*
X00855983D01*
X0086856Y00574043D01*
Y00211433D02*
Y00574043D01*
X00852827Y00579D02*
X0086094Y00570887D01*
Y0037072D02*
Y00570887D01*
X00852827Y001957D02*
X0086856Y00211433D01*
X0084709Y001957D02*
X00852827D01*
X0084709Y0018415D02*
Y001957D01*
X0075438Y0033655D02*
X0080784Y0039001D01*
Y0057528D01*
X0075438Y00305D02*
Y0033655D01*
X0085217Y0036195D02*
X0086094Y0037072D01*
X0084709Y0036195D02*
X0085217D01*
X0070993Y0026055D02*
X0075438Y00305D01*
X0080784Y0057528D02*
X0081156Y00579D01*
X00852827D01*
D31*
X0057912Y0009652D02*
X0060706Y0006858D01*
Y0006894D01*
X0070739D01*
X0076757D01*
X0070739D02*
X0070993Y0007148D01*
Y0009779D01*
X0078118Y0008255D02*
X0082169D01*
X0076757Y0006894D02*
X0078118Y0008255D01*
X0082169Y0007636D02*
Y0008255D01*
Y0007636D02*
X0086757Y0003048D01*
X0088265D01*
X0060325Y0050038D02*
X0064008Y0053721D01*
X0057785Y0050038D02*
X0060325D01*
X0054102Y0053721D02*
X0057785Y0050038D01*
X0051435Y0053721D02*
X0054102D01*
X0038735D02*
X0042786D01*
X0045544Y0056479D01*
X0047166D01*
X0049924Y0053721D01*
X0051435D01*
X0038735Y0043561D02*
X0039624Y0042672D01*
X0038735Y0043561D02*
Y0053721D01*
X0057912Y0019939D02*
Y00211966D01*
X0056265Y00228436D02*
X0057912Y00211966D01*
X0056265Y00228436D02*
Y00254164D01*
X00570066Y0026158D01*
X0057912D01*
Y0026289D01*
X0058039Y0026416D01*
X006729Y0026035D02*
X006731Y0026055D01*
X00635Y0026035D02*
X006729D01*
X0063119Y0026416D02*
X00635Y0026035D01*
X0058039Y0026416D02*
X0063119D01*
X0050292Y0033355D02*
X005334Y0030307D01*
Y0020066D02*
Y0030307D01*
Y0020066D02*
X0056515Y0016891D01*
X0057912D01*
X006731Y0022987D02*
X0071735D01*
X0062103D02*
X006731D01*
Y0015855D02*
Y0022987D01*
X0065365Y001397D02*
X0069108D01*
X00635Y0015835D02*
X0065365Y001397D01*
X0069108D02*
X0070993Y0015855D01*
X0057912Y0018415D02*
X006092D01*
X00635Y0015835D01*
X0071735Y0022987D02*
X0074803Y0026055D01*
X0060198Y0024892D02*
X0062103Y0022987D01*
X0058039Y0024892D02*
X0060198D01*
X0064135Y0042545D02*
X0064897D01*
X0058928Y0037338D02*
X0064135Y0042545D01*
X0054737Y0037338D02*
X0058928D01*
X0050754Y0033355D02*
X0054737Y0037338D01*
X0050292Y0033355D02*
X0050754D01*
X0059897Y0045045D02*
X0073834D01*
X0056936Y0048006D02*
X0059897Y0045045D01*
X005207Y0048006D02*
X0056936D01*
X0046355Y0053721D02*
X005207Y0048006D01*
X0012065Y001016D02*
X0018288Y0003937D01*
X00348751D01*
X00350831Y0003729D01*
X00362909D01*
X0042672Y00101101D01*
Y001016D01*
X0020447Y0007366D02*
X0022626Y0005187D01*
X0035687D01*
X0020447Y0007366D02*
Y0007955D01*
X0012065Y00127D02*
X0015113D01*
X0020447Y0007366D01*
Y0007955D02*
X0027732Y001524D01*
X0031857Y0015387D02*
X0035687D01*
X0029464Y001778D02*
X0031857Y0015387D01*
X0019812Y001778D02*
X0029464D01*
X0017272Y001524D02*
X0019812Y001778D01*
X0012065Y001524D02*
X0017272D01*
X0050292Y0043815D02*
X0051562Y0042545D01*
X0054897D01*
X0050165Y0043688D02*
X0050292Y0043815D01*
X004572Y0043688D02*
X0050165D01*
X0029972Y0039497D02*
X0041529D01*
X0027051Y0042418D02*
X0029972Y0039497D01*
X0024257Y0042418D02*
X0027051D01*
X002196Y0040121D02*
X0024257Y0042418D01*
X001524Y0040121D02*
X002196D01*
X0041529Y0039497D02*
X004572Y0043688D01*
D32*
X0025654Y0051562D02*
Y0054991D01*
X0011557Y0040894D02*
X0025654Y0054991D01*
X0011557Y0037719D02*
Y0040894D01*
X0014605Y0034671D02*
X001524D01*
X0011557Y0037719D02*
X0014605Y0034671D01*
X0025654Y0055118D02*
Y0057277D01*
Y0051562D02*
X0034544Y0042672D01*
X0019939Y0028861D02*
X002213Y002667D01*
X0019939Y0028861D02*
Y0033655D01*
X0025654Y003937D01*
X002467Y002032D02*
X003683D01*
X0046736D02*
X0050419Y0024003D01*
Y002951D01*
X003683Y002032D02*
X0046736D01*
X0006223Y0034036D02*
X0019939Y002032D01*
X0006223Y0034036D02*
Y005334D01*
X0019939Y002032D02*
X002467D01*
X002921Y0053721D02*
X0033655D01*
X0025654Y0057277D02*
X002921Y0053721D01*
X0006223Y005334D02*
X0006623D01*
D33*
X0003048Y0003048D02*
D03*
X0088265Y0059055D02*
D03*
Y0003048D02*
D03*
X0003048Y0059055D02*
D03*
D34*
X0035687Y0015387D02*
D03*
Y0005187D02*
D03*
X0074803Y0026055D02*
D03*
Y0015855D02*
D03*
X0070993D02*
D03*
Y0026055D02*
D03*
X006731D02*
D03*
Y0015855D02*
D03*
X00635Y0026035D02*
D03*
Y0015835D02*
D03*
D35*
X0039624Y0042672D02*
D03*
X0047752Y001016D02*
D03*
X001524Y0034671D02*
D03*
X001024Y0025721D02*
D03*
X001524Y0040121D02*
D03*
X001024Y0043621D02*
D03*
X001524Y0029221D02*
D03*
X0025654Y003937D02*
D03*
Y0057277D02*
D03*
D36*
X0034544Y0042672D02*
D03*
X0042672Y001016D02*
D03*
D37*
X004572Y0027305D02*
D03*
X004318D02*
D03*
X0084709Y0056515D02*
D03*
Y0008255D02*
D03*
X0082169D02*
D03*
X0084709Y0010795D02*
D03*
X0082169D02*
D03*
X0084709Y0013335D02*
D03*
X0082169D02*
D03*
X0084709Y0015875D02*
D03*
X0082169D02*
D03*
X0084709Y0018415D02*
D03*
X0082169D02*
D03*
X0084709Y0020955D02*
D03*
X0082169D02*
D03*
X0084709Y0023495D02*
D03*
X0082169D02*
D03*
X0084709Y0026035D02*
D03*
X0082169D02*
D03*
X0084709Y0028575D02*
D03*
X0082169D02*
D03*
X0084709Y0031115D02*
D03*
X0082169D02*
D03*
X0084709Y0033655D02*
D03*
X0082169D02*
D03*
X0084709Y0036195D02*
D03*
X0082169D02*
D03*
X0084709Y0038735D02*
D03*
X0082169D02*
D03*
X0084709Y0041275D02*
D03*
X0082169D02*
D03*
X0084709Y0043815D02*
D03*
X0082169D02*
D03*
X0084709Y0046355D02*
D03*
X0082169D02*
D03*
X0084709Y0048895D02*
D03*
X0082169D02*
D03*
X0084709Y0051435D02*
D03*
X0082169D02*
D03*
X0084709Y0053975D02*
D03*
X0082169D02*
D03*
X0045847Y0023495D02*
D03*
X0043307D02*
D03*
D38*
X0050419Y001905D02*
D03*
X0027732Y001524D02*
D03*
X004572Y0033228D02*
D03*
X0050292Y0033355D02*
D03*
D39*
X0050419Y002951D02*
D03*
X004572Y0043688D02*
D03*
X0050292Y0043815D02*
D03*
D40*
X0082169Y0056515D02*
D03*
D41*
X0058039Y0026416D02*
D03*
Y0024892D02*
D03*
Y0023368D02*
D03*
X0057912Y0019939D02*
D03*
Y0018415D02*
D03*
Y0016891D02*
D03*
D42*
X002213Y002667D02*
D03*
X002467Y003302D02*
D03*
Y002032D02*
D03*
X003683Y003302D02*
D03*
Y002032D02*
D03*
D43*
X0012065Y001524D02*
D03*
Y00127D02*
D03*
Y001016D02*
D03*
D44*
X0017272Y001524D02*
D03*
D45*
X0022987Y0007366D02*
D03*
X0020447D02*
D03*
X0017907D02*
D03*
D46*
X0062992Y0009652D02*
D03*
X0057912D02*
D03*
X0076073Y0009779D02*
D03*
X0070993D02*
D03*
X0071755Y0053721D02*
D03*
X0076835D02*
D03*
X0058928D02*
D03*
X0064008D02*
D03*
X0046355D02*
D03*
X0051435D02*
D03*
X0033655D02*
D03*
X0038735D02*
D03*
X0006223Y005334D02*
D03*
X0011303D02*
D03*
X0016383D02*
D03*
D47*
X0073834Y0045045D02*
D03*
X0078834Y0042545D02*
D03*
X0068834D02*
D03*
X0078834Y0032345D02*
D03*
X0068834D02*
D03*
X0059897Y0045045D02*
D03*
X0064897Y0042545D02*
D03*
X0054897D02*
D03*
X0064897Y0032345D02*
D03*
X0054897D02*
D03*
M02*
