G04*
G04 #@! TF.GenerationSoftware,Altium Limited,Altium Designer,18.0.11 (651)*
G04*
G04 Layer_Color=16711935*
%FSTAX44Y44*%
%MOMM*%
G71*
G01*
G75*
%ADD16C,3.2032*%
%ADD17C,1.6032*%
%ADD18C,2.4032*%
%ADD19R,2.4032X2.4032*%
%ADD20C,1.7032*%
%ADD21C,2.7032*%
%ADD22R,2.7032X2.7032*%
%ADD23R,1.7032X1.7032*%
%ADD24O,2.2352X1.2192*%
%ADD25O,3.2032X2.7032*%
G04:AMPARAMS|DCode=26|XSize=1.9812mm|YSize=2.4892mm|CornerRadius=0mm|HoleSize=0mm|Usage=FLASHONLY|Rotation=90.000|XOffset=0mm|YOffset=0mm|HoleType=Round|Shape=Octagon|*
%AMOCTAGOND26*
4,1,8,-1.2446,-0.4953,-1.2446,0.4953,-0.7493,0.9906,0.7493,0.9906,1.2446,0.4953,1.2446,-0.4953,0.7493,-0.9906,-0.7493,-0.9906,-1.2446,-0.4953,0.0*
%
%ADD26OCTAGOND26*%

%ADD27R,2.7032X2.7032*%
%ADD28O,1.8032X2.2032*%
%ADD29O,2.6032X4.2032*%
%ADD30O,2.7032X3.2032*%
D16*
X0003048Y0003048D02*
D03*
X0088265Y0059055D02*
D03*
Y0003048D02*
D03*
X0003048Y0059055D02*
D03*
D17*
X0035687Y0015387D02*
D03*
Y0005187D02*
D03*
X0074803Y0026055D02*
D03*
Y0015855D02*
D03*
X0070993D02*
D03*
Y0026055D02*
D03*
X006731D02*
D03*
Y0015855D02*
D03*
X00635Y0026035D02*
D03*
Y0015835D02*
D03*
D18*
X0039624Y0042672D02*
D03*
X0047752Y001016D02*
D03*
X001524Y0034671D02*
D03*
X001024Y0025721D02*
D03*
X001524Y0040121D02*
D03*
X001024Y0043621D02*
D03*
X001524Y0029221D02*
D03*
X0025654Y003937D02*
D03*
Y0057277D02*
D03*
D19*
X0034544Y0042672D02*
D03*
X0042672Y001016D02*
D03*
D20*
X004572Y0027305D02*
D03*
X004318D02*
D03*
X0084709Y0056515D02*
D03*
Y0008255D02*
D03*
X0082169D02*
D03*
X0084709Y0010795D02*
D03*
X0082169D02*
D03*
X0084709Y0013335D02*
D03*
X0082169D02*
D03*
X0084709Y0015875D02*
D03*
X0082169D02*
D03*
X0084709Y0018415D02*
D03*
X0082169D02*
D03*
X0084709Y0020955D02*
D03*
X0082169D02*
D03*
X0084709Y0023495D02*
D03*
X0082169D02*
D03*
X0084709Y0026035D02*
D03*
X0082169D02*
D03*
X0084709Y0028575D02*
D03*
X0082169D02*
D03*
X0084709Y0031115D02*
D03*
X0082169D02*
D03*
X0084709Y0033655D02*
D03*
X0082169D02*
D03*
X0084709Y0036195D02*
D03*
X0082169D02*
D03*
X0084709Y0038735D02*
D03*
X0082169D02*
D03*
X0084709Y0041275D02*
D03*
X0082169D02*
D03*
X0084709Y0043815D02*
D03*
X0082169D02*
D03*
X0084709Y0046355D02*
D03*
X0082169D02*
D03*
X0084709Y0048895D02*
D03*
X0082169D02*
D03*
X0084709Y0051435D02*
D03*
X0082169D02*
D03*
X0084709Y0053975D02*
D03*
X0082169D02*
D03*
X0045847Y0023495D02*
D03*
X0043307D02*
D03*
D21*
X0050419Y001905D02*
D03*
X0027732Y001524D02*
D03*
X004572Y0033228D02*
D03*
X0050292Y0033355D02*
D03*
D22*
X0050419Y002951D02*
D03*
X004572Y0043688D02*
D03*
X0050292Y0043815D02*
D03*
D23*
X0082169Y0056515D02*
D03*
D24*
X0058039Y0026416D02*
D03*
Y0024892D02*
D03*
Y0023368D02*
D03*
X0057912Y0019939D02*
D03*
Y0018415D02*
D03*
Y0016891D02*
D03*
D25*
X002213Y002667D02*
D03*
X002467Y003302D02*
D03*
Y002032D02*
D03*
X003683Y003302D02*
D03*
Y002032D02*
D03*
D26*
X0012065Y001524D02*
D03*
Y00127D02*
D03*
Y001016D02*
D03*
D27*
X0017272Y001524D02*
D03*
D28*
X0022987Y0007366D02*
D03*
X0020447D02*
D03*
X0017907D02*
D03*
D29*
X0062992Y0009652D02*
D03*
X0057912D02*
D03*
X0076073Y0009779D02*
D03*
X0070993D02*
D03*
X0071755Y0053721D02*
D03*
X0076835D02*
D03*
X0058928D02*
D03*
X0064008D02*
D03*
X0046355D02*
D03*
X0051435D02*
D03*
X0033655D02*
D03*
X0038735D02*
D03*
X0006223Y005334D02*
D03*
X0011303D02*
D03*
X0016383D02*
D03*
D30*
X0073834Y0045045D02*
D03*
X0078834Y0042545D02*
D03*
X0068834D02*
D03*
X0078834Y0032345D02*
D03*
X0068834D02*
D03*
X0059897Y0045045D02*
D03*
X0064897Y0042545D02*
D03*
X0054897D02*
D03*
X0064897Y0032345D02*
D03*
X0054897D02*
D03*
M02*
