M48
;Layer_Color=9474304
;FILE_FORMAT=4:4
METRIC,LZ
;TYPE=PLATED
T1F00S00C0.6000
T2F00S00C0.7000
T3F00S00C0.8000
T4F00S00C0.9000
T5F00S00C1.0000
T6F00S00C1.0160
T7F00S00C1.2000
T8F00S00C1.3000
T9F00S00C1.4000
T10F00S00C2.2000
;TYPE=NON_PLATED
T11F00S00C0.7998
%
T01
X0035687Y0005187
Y0015387
X00635Y0015835
X006731Y0015855
X0070993
X0074803
Y0026055
X0070993
X006731
X00635Y0026035
T02
X0043307Y0023495
X0045847
X004572Y0027305
X004318
T03
X0017907Y0007366
X0020447
X0022987
T04
X0082169Y0008255
X0084709
Y0010795
X0082169
X0047752Y001016
X0042672
X0039624Y0042672
X0034544
X0082169Y0043815
Y0041275
Y0038735
Y0036195
Y0033655
Y0031115
Y0028575
Y0026035
Y0023495
Y0020955
Y0018415
Y0015875
Y0013335
X0084709
Y0015875
Y0018415
Y0020955
Y0023495
Y0026035
Y0028575
Y0031115
Y0033655
Y0036195
Y0038735
Y0041275
Y0043815
Y0046355
X0082169
Y0048895
X0084709
Y0051435
X0082169
Y0053975
Y0056515
X0084709
Y0053975
T05
X0017272Y001524
X0027732
X0050419Y001905
Y002951
X0050292Y0033355
X004572Y0033228
Y0043688
X0050292Y0043815
T06
X0012065Y001016
Y00127
Y001524
T07
X0057912Y0009652
X0062992
X0070993Y0009779
X0076073
X0076835Y0053721
X0071755
X0064008
X0058928
X0051435
X0046355
X0038735
X0033655
X0016383Y005334
X0011303
X0006223
T08
X002467Y002032
X002213Y002667
X002467Y003302
X003683
Y002032
X0054897Y0032345
Y0042545
X0059897Y0045045
X0064897Y0042545
X0068834
X0073834Y0045045
X0078834Y0042545
Y0032345
X0068834
X0064897
T09
X001024Y0025721
X001524Y0029221
Y0034671
Y0040121
X001024Y0043621
X0025654Y003937
Y0057277
T10
X0088265Y0003048
X0003048
X0088265Y0059055
X0003048
T11
X0057912Y0016891
Y0018415
Y0019939
X0058039Y0023368
Y0024892
Y0026416
M30
